<svg width="480" height="480" viewBox="0 0 480 480" fill="none" xmlns="http://www.w3.org/2000/svg">
<path d="M480 168.033C479.981 167.128 479.805 166.231 479.482 165.389C479.407 165.182 479.322 164.983 479.224 164.788C478.842 163.91 478.3 163.11 477.629 162.432C476.93 161.761 476.119 161.218 475.229 160.832C475.031 160.739 474.847 160.657 474.64 160.579C473.786 160.255 472.885 160.079 471.972 160.06H471.82C471.223 160.064 470.626 160.134 470.045 160.266C466.378 161.16 413.905 174.103 364.896 191.225C364.771 191.272 364.643 191.303 364.514 191.362C345.496 197.759 326.939 205.456 308.971 214.394C308.713 214.511 308.46 214.635 308.214 214.78C299.955 218.81 292.309 223.994 285.506 230.173C253.396 262.283 240.679 323.537 268.954 359.711L257.664 371.001C250.287 378.448 244.303 387.155 239.992 396.713C235.651 387.171 229.639 378.483 222.239 371.056L210.949 359.77C239.224 323.592 226.506 262.337 194.397 230.228C187.597 224.049 179.955 218.868 171.701 214.842C171.439 214.698 171.174 214.565 170.901 214.452C152.937 205.511 134.375 197.814 115.358 191.416C115.229 191.362 115.104 191.331 114.968 191.28C66.0018 174.158 13.5249 161.226 9.89689 160.321C9.32343 160.188 8.73437 160.122 8.14141 160.122H7.97367C7.05302 160.142 6.14018 160.317 5.28195 160.649C5.0908 160.723 4.91525 160.801 4.728 160.883C3.83856 161.265 3.02714 161.803 2.33275 162.478C1.67348 163.165 1.14684 163.961 0.776237 164.835C0.678711 165.03 0.592887 165.233 0.518767 165.435C0.19498 166.282 0.0194333 167.175 -7.19363e-05 168.08V168.318C-0.00397298 168.896 0.0584438 169.469 0.183278 170.031C1.08832 173.698 14.0281 226.186 31.1498 275.191C31.1966 275.304 31.2239 275.425 31.2785 275.539C37.6762 294.572 45.3769 313.141 54.3259 331.117C54.4312 331.355 54.5483 331.585 54.6809 331.807C58.7107 340.081 63.8991 347.743 70.0901 354.558C91.698 375.066 120.3 386.582 150.089 386.765C167.909 387.241 185.374 381.725 199.687 371.099L210.941 382.353C224.47 395.812 232.05 414.119 232.003 433.199V472.011C232.003 476.423 235.58 480 239.992 480C244.404 480 247.982 476.423 247.982 472.011V433.199C247.931 414.119 255.515 395.812 269.04 382.353L280.298 371.099C294.611 381.725 312.076 387.241 329.896 386.765C359.684 386.558 388.279 375.027 409.879 354.511C416.066 347.696 421.255 340.035 425.288 331.757C425.417 331.534 425.538 331.308 425.639 331.07C434.588 313.09 442.289 294.513 448.691 275.472C448.745 275.351 448.769 275.234 448.819 275.113C465.937 226.116 478.881 173.647 479.786 169.957C479.907 169.395 479.969 168.821 479.969 168.248C479.977 168.193 480 168.111 480 168.033V168.033ZM199.574 348.375L176.078 324.895V235.951C178.574 237.609 180.927 239.477 183.099 241.541C209.33 267.764 220.912 318.758 199.558 348.375H199.574ZM49.988 280.267H108.855L148.801 320.213H66.6727C60.3999 307.203 54.8331 293.87 49.988 280.267ZM34.4345 183.251C54.9813 188.885 80.1157 196.297 104.174 204.489V252.99L34.4345 183.251ZM92.8761 264.288H44.3743C36.1821 240.23 28.7624 215.096 23.137 194.549L92.8761 264.288ZM120.152 268.969V210.102C133.755 214.947 147.089 220.514 160.099 226.787V308.916L120.152 268.969ZM81.4031 343.214C79.3433 341.037 77.4747 338.685 75.809 336.192H164.78L188.261 359.672C158.652 381.035 107.642 369.452 81.4031 343.214ZM435.618 264.288H387.109L456.848 194.549C451.222 215.096 443.807 240.23 435.618 264.288ZM413.312 320.213H331.183L371.13 280.267H429.993C425.16 293.873 419.589 307.207 413.312 320.213ZM359.833 268.969L319.886 308.916V226.787C332.892 220.514 346.23 214.947 359.833 210.102V268.969ZM375.811 204.489C399.865 196.297 425 188.885 445.55 183.251L375.811 252.99V204.489ZM296.885 241.525C299.058 239.462 301.407 237.589 303.907 235.935V324.895L280.427 348.375C259.072 318.758 270.655 267.764 296.885 241.525V241.525ZM291.724 359.672L315.205 336.192H404.156C402.494 338.685 400.622 341.037 398.566 343.214C372.343 369.445 321.341 381.042 291.724 359.672V359.672Z" fill="#FF9C48"/>
<path d="M239.993 144.448C244.405 144.448 247.982 140.87 247.982 136.458V8.62884C247.982 4.21676 244.405 0.639496 239.993 0.639496C235.58 0.639496 232.003 4.21676 232.003 8.62884V136.458C232.003 140.87 235.58 144.448 239.993 144.448Z" fill="#FF9C48"/>
<path d="M112.163 144.448H160.099C177.33 144.498 192.638 133.462 198.037 117.098C203.432 100.737 197.697 82.7566 183.817 72.5436C197.697 62.3307 203.432 44.3508 198.037 27.9898C192.638 11.6249 177.33 0.588804 160.099 0.639517H112.163C107.751 0.639517 104.174 4.21678 104.174 8.62886V136.458C104.174 140.87 107.751 144.448 112.163 144.448ZM184.067 104.501C184.067 117.737 173.335 128.469 160.099 128.469H120.152V80.533H160.099C173.335 80.533 184.067 91.2648 184.067 104.501ZM120.152 16.6182H160.099C173.335 16.6182 184.067 27.35 184.067 40.5862C184.067 53.8225 173.335 64.5543 160.099 64.5543H120.152V16.6182Z" fill="#FF9C48"/>
<path d="M311.897 144.448H343.854C361.502 144.448 375.811 130.139 375.811 112.49V32.5969C375.811 14.9485 361.502 0.639496 343.854 0.639496H311.897C294.248 0.639496 279.939 14.9485 279.939 32.5969V112.49C279.939 130.139 294.248 144.448 311.897 144.448ZM295.918 32.5969C295.918 23.7727 303.072 16.6182 311.897 16.6182H343.854C352.678 16.6182 359.833 23.7727 359.833 32.5969V112.49C359.833 121.315 352.678 128.469 343.854 128.469H311.897C303.072 128.469 295.918 121.315 295.918 112.49V32.5969Z" fill="#FF9C48"/>
</svg>
