<svg width="482" height="477" viewBox="0 0 482 477" fill="none" xmlns="http://www.w3.org/2000/svg">
<path d="M480.907 369.055C476.276 351.957 458.663 341.845 441.565 346.468L397.875 359.84C403.688 333.724 389.938 307.2 365.246 296.897C369.246 284.734 367.168 271.393 359.664 261.024C352.163 250.654 340.141 244.51 327.338 244.506C326.539 244.506 325.74 244.506 324.945 244.577C318.7 223.74 300.954 208.407 279.435 205.25V193.863C279.42 187.508 281.946 181.407 286.452 176.924L308.01 155.366C318.532 163.869 331.638 168.519 345.166 168.554C365.281 167.872 384.29 159.194 397.981 144.443C423.745 118.663 448.192 21.8198 450.889 10.8575C451.556 8.14428 450.757 5.27898 448.78 3.3064C446.808 1.32993 443.943 0.53076 441.229 1.19738C430.267 3.89505 333.447 28.3417 307.644 54.1061C279.907 81.8508 275.938 117.794 296.713 144.084L275.155 165.642C271.19 169.634 268.118 174.425 266.142 179.692C263.066 176.359 259.534 173.478 255.651 171.135L228.448 154.848C235.602 140.319 236.417 123.478 230.702 108.325C223.864 91.4914 211.409 77.547 195.453 68.8614C163.884 50.6482 63.9917 52.0945 52.7333 52.3245C49.9381 52.383 47.3769 53.8956 45.9813 56.3164C44.5818 58.7334 44.5506 61.7118 45.8994 64.16C51.3532 74.0423 100.02 161.272 131.582 179.493C144.002 186.9 158.145 190.931 172.604 191.181C176.214 191.184 179.82 190.888 183.383 190.296C197.924 187.902 211.019 180.086 220.028 168.418L247.461 184.826C255.012 189.399 260.427 196.802 262.493 205.386C235.481 209.795 215.623 233.104 215.564 260.474V261.032C199.519 258.747 183.27 263.53 171.022 274.142C158.773 284.753 151.721 300.152 151.693 316.361H149.218C131.11 316.373 113.045 318.08 95.2567 321.464C84.1931 323.639 73.5778 327.682 63.8709 333.413V308.377C63.8709 303.968 60.2961 300.393 55.887 300.393H7.98386C3.57481 300.393 0 303.968 0 308.377V468.055C0 472.464 3.57481 476.038 7.98386 476.038H55.887C60.2961 476.038 63.8709 472.464 63.8709 468.055V442.505C74.1587 448.906 85.5185 453.385 97.4047 455.736C112.721 458.624 128.28 460.075 143.869 460.071H258.439C273.139 460.055 287.774 458.118 301.976 454.313L458.355 408.176C475.383 403.599 485.48 386.083 480.907 369.055V369.055ZM318.949 65.3801C335.712 48.6133 397.564 29.3904 432.006 20.0811C422.704 54.4881 403.442 116.39 386.707 133.138C368.696 151.133 341.797 160.419 319.417 143.956L343.115 120.261L360.545 128.978C364.486 130.962 369.293 129.376 371.277 125.431C373.261 121.485 371.675 116.679 367.729 114.695L355.052 108.364L371.339 92.0138L388.816 100.797C392.757 102.781 397.564 101.191 399.548 97.2493C401.532 93.3042 399.946 88.4975 396 86.5132L383.225 80.1433L403.626 59.7353C405.7 57.7315 406.534 54.761 405.801 51.9698C405.072 49.1785 402.893 46.9993 400.098 46.2703C397.306 45.5374 394.34 46.3717 392.336 48.4456L371.944 68.8614L365.613 56.1683C363.64 52.2232 358.841 50.6248 354.9 52.5974C350.955 54.57 349.356 59.3689 351.329 63.3101L360.073 80.7475L343.747 97.0739L337.416 84.3964C335.439 80.4551 330.644 78.8568 326.699 80.8294C322.754 82.802 321.159 87.597 323.132 91.5421L331.849 108.972L308.154 132.666C291.657 110.297 300.993 83.3828 318.949 65.3801V65.3801ZM180.725 174.542C166.39 176.417 151.853 173.279 139.566 165.666C119.08 153.842 84.4777 99.0543 66.5374 68.1831C102.227 68.2688 166.983 70.873 187.469 82.6967C210.017 95.7173 226.254 120.07 214.695 146.622L186.022 129.489L190.209 109.026C190.973 104.761 188.194 100.664 183.945 99.795C179.699 98.9295 175.536 101.608 174.569 105.834L171.501 120.803L151.541 108.894L155.596 89.0666C156.364 84.8018 153.584 80.7046 149.335 79.8353C145.09 78.9699 140.926 81.648 139.955 85.8739L137.02 100.247L112.269 85.4256C108.484 83.1645 103.58 84.3964 101.315 88.1817C99.0498 91.967 100.286 96.8712 104.071 99.1361L128.818 113.93L118.569 123.021C115.263 125.949 114.951 131.001 117.879 134.307C120.803 137.617 125.855 137.925 129.165 134.997L143.191 122.561L162.909 134.354L153.147 143.016C149.838 145.94 149.53 150.988 152.454 154.294C155.373 157.604 160.426 157.916 163.732 154.992L177.306 143.016L206.2 160.302C199.651 167.903 190.626 172.948 180.725 174.542ZM207.58 276.442C212.5 276.403 217.381 277.319 221.95 279.139C224.729 280.262 227.907 279.736 230.171 277.771C232.44 275.81 233.415 272.742 232.698 269.83C231.934 266.77 231.544 263.628 231.532 260.474C231.524 239.552 247.687 222.18 268.555 220.68C289.423 219.183 307.901 234.063 310.883 254.775C311.199 257.079 312.509 259.133 314.462 260.396C316.419 261.659 318.832 262.006 321.062 261.343C323.101 260.755 325.218 260.462 327.338 260.474C340.566 260.474 351.29 271.199 351.29 284.426C351.298 289.002 349.968 293.485 347.466 297.318C346.043 299.508 345.782 302.253 346.76 304.67C347.739 307.087 349.84 308.872 352.385 309.453C370.396 313.73 383.144 329.783 383.225 348.297C383.257 354.265 381.927 360.163 379.339 365.543L340.113 377.558C338.156 365.083 328.991 354.951 316.774 351.762L281.677 342.387L213.646 322.427C208.859 321.031 203.963 319.959 199.055 319.043C199.39 318.186 199.573 317.281 199.597 316.361C199.597 311.952 203.171 308.377 207.58 308.377C208.395 308.346 209.206 308.471 209.974 308.744C214.056 310.362 218.675 308.385 220.32 304.315C221.965 300.249 220.02 295.614 215.962 293.942C213.295 292.893 210.45 292.371 207.58 292.41C194.353 292.41 183.629 303.134 183.629 316.361C183.629 316.568 183.734 316.743 183.75 316.95C179.516 316.591 175.271 316.361 171.014 316.361H167.661C167.688 294.324 185.543 276.469 207.58 276.442V276.442ZM47.9032 460.071H15.9677V316.361H47.9032V460.071ZM454.02 392.773L297.664 438.945C284.866 442.353 271.681 444.087 258.439 444.103H143.869C129.289 444.095 114.741 442.723 100.414 440.006C90.1498 437.979 80.3532 434.065 71.5195 428.463L63.8709 423.672V352.374L64.7402 351.754C74.7357 344.519 86.1735 339.529 98.274 337.12C115.068 333.935 132.124 332.333 149.218 332.329H171.014C183.925 332.325 196.77 334.153 209.171 337.755L277.377 357.766L312.642 367.184C321.105 369.395 326.181 378.041 323.986 386.508V386.618L323.939 386.715V386.785C322.033 393.748 315.713 398.582 308.498 398.593C307.118 398.601 305.741 398.426 304.408 398.067L209.569 372.677C206.785 371.851 203.772 372.599 201.698 374.634C199.628 376.669 198.825 379.667 199.6 382.466C200.376 385.265 202.61 387.421 205.432 388.095L300.288 413.493C302.966 414.21 305.726 414.569 308.498 414.561C321.35 414.514 332.929 406.78 337.891 394.921L445.931 361.867C454.472 359.625 463.22 364.713 465.501 373.246C465.855 374.595 466.031 375.987 466.019 377.382C465.968 384.637 461.045 390.956 454.02 392.773V392.773Z" fill="#21806A"/>
<path d="M255.916 272.115C258.368 272.115 260.684 270.984 262.2 269.054C263.713 267.125 264.255 264.602 263.666 262.221C263.53 261.648 263.464 261.063 263.467 260.474C263.467 256.065 267.042 252.49 271.451 252.49C275.338 252.459 278.659 255.285 279.252 259.125C279.517 261.234 280.62 263.144 282.316 264.427C284.008 265.714 286.148 266.259 288.249 265.944C292.608 265.335 295.656 261.316 295.06 256.954C293.259 244.53 282.156 235.618 269.639 236.542C257.121 237.47 247.453 247.921 247.5 260.474C247.488 262.357 247.714 264.236 248.17 266.06C249.059 269.616 252.252 272.115 255.916 272.115V272.115Z" fill="#21806A"/>
<path d="M339.252 331.027C338.772 333.093 339.139 335.264 340.265 337.061C341.392 338.859 343.185 340.137 345.255 340.609C348.783 341.494 351.267 344.655 351.29 348.297C351.29 352.706 354.865 356.28 359.274 356.28C363.683 356.28 367.258 352.706 367.258 348.297C367.219 337.21 359.593 327.588 348.807 325.023C344.511 324.045 340.234 326.731 339.252 331.027Z" fill="#21806A"/>
<path d="M285.918 297.08C274.48 293.984 262.505 299.77 257.815 310.654C256.103 314.716 258.01 319.402 262.076 321.113C266.138 322.829 270.824 320.922 272.539 316.856C274.087 313.285 278.04 311.41 281.782 312.471C283.833 313.02 285.579 314.365 286.635 316.205C287.692 318.045 287.976 320.228 287.419 322.275C286.277 326.536 288.803 330.914 293.064 332.056C293.742 332.235 294.44 332.329 295.138 332.329C298.752 332.325 301.909 329.9 302.845 326.411C306.244 313.64 298.677 300.526 285.918 297.08V297.08Z" fill="#21806A"/>
<path d="M319.354 284.426C323.764 284.426 327.338 288.001 327.338 292.41C327.338 296.819 330.913 300.393 335.322 300.393C339.731 300.393 343.306 296.819 343.306 292.41C343.306 279.182 332.582 268.458 319.354 268.458C314.945 268.458 311.371 272.033 311.371 276.442C311.371 280.851 314.945 284.426 319.354 284.426Z" fill="#21806A"/>
</svg>
