<svg width="320" height="480" viewBox="0 0 320 480" fill="none" xmlns="http://www.w3.org/2000/svg">
<path d="M319.19 143.852C311.702 69.9669 254.356 10.9522 180.717 1.34363C107.079 -8.26106 36.5101 34.0636 10.3169 103.554C-15.8802 173.044 9.18809 251.421 70.8432 292.816C86.5021 303.198 95.9466 320.716 96.0091 339.507V345.484C88.4433 348.1 82.7016 354.35 80.7369 362.111C78.7683 369.872 80.8424 378.102 86.2482 384.008C77.9286 393.05 77.9286 406.963 86.2482 416.005C79.8581 423.012 78.2137 433.137 82.0649 441.804C85.9123 450.471 94.5249 456.045 104.008 456.002H120.007C120.007 469.255 130.752 480 144.005 480H176.003C189.255 480 200.001 469.255 200.001 456.002H215.999C225.483 456.045 234.095 450.471 237.943 441.804C241.79 433.137 240.15 423.012 233.76 416.005C242.079 406.963 242.079 393.05 233.76 384.008C239.165 378.102 241.239 369.872 239.271 362.111C237.306 354.35 231.564 348.1 223.999 345.484V339.523C224.159 320.622 233.713 303.042 249.485 292.625C298.301 259.619 325.072 202.487 319.19 143.852V143.852ZM104.008 360.01H215.999C220.417 360.01 223.999 363.591 223.999 368.009C223.999 372.427 220.417 376.008 215.999 376.008H104.008C99.5909 376.008 96.0091 372.427 96.0091 368.009C96.0091 363.591 99.5909 360.01 104.008 360.01ZM168.003 240.531L186.529 234.356C190.728 232.961 192.997 228.427 191.603 224.228C190.205 220.033 185.67 217.76 181.475 219.158L168.003 223.669V200.534L186.529 194.359C190.728 192.965 192.997 188.43 191.603 184.231C190.205 180.036 185.67 177.763 181.475 179.161L168.003 183.672V154.769C168.003 150.351 164.421 146.769 160.004 146.769C155.586 146.769 152.005 150.351 152.005 154.769V183.672L138.533 179.224C134.338 177.829 129.803 180.099 128.405 184.297C127.01 188.492 129.28 193.027 133.479 194.422L152.005 200.534V223.669L138.533 219.22C134.338 217.826 129.803 220.095 128.405 224.294C127.01 228.489 129.28 233.024 133.479 234.418L152.005 240.531V274.13C124.487 269.947 112.008 244.3 112.008 218.791C112.008 195.078 142.189 137.586 160.004 106.581C177.819 137.586 208 195.07 208 218.791C208 244.3 195.521 269.986 168.003 274.13V240.531ZM223.999 400.006C223.999 404.424 220.417 408.006 215.999 408.006H104.008C99.5909 408.006 96.0091 404.424 96.0091 400.006C96.0091 395.589 99.5909 392.007 104.008 392.007H215.999C220.417 392.007 223.999 395.589 223.999 400.006ZM176.003 464.001H144.005C139.588 464.001 136.006 460.419 136.006 456.002H184.002C184.002 460.419 180.42 464.001 176.003 464.001ZM215.999 440.003H104.008C99.5909 440.003 96.0091 436.421 96.0091 432.004C96.0091 427.586 99.5909 424.004 104.008 424.004H215.999C220.417 424.004 223.999 427.586 223.999 432.004C223.999 436.421 220.417 440.003 215.999 440.003ZM240.525 279.36C220.351 292.757 208.16 315.306 208 339.523V344.011H168.003V290.254C201.344 286.352 223.999 258.073 223.999 218.763C223.999 182.247 172.698 96.3203 166.843 86.6414C165.293 84.3876 162.738 83.044 160.004 83.044C157.27 83.044 154.715 84.3876 153.165 86.6414C147.31 96.3203 96.0091 182.247 96.0091 218.763C96.0091 258.073 118.664 286.352 152.005 290.254V344.011H112.008V339.507C111.938 315.396 99.8447 292.914 79.7722 279.559C27.1827 244.265 3.83305 178.751 22.2456 118.151C40.6543 57.55 96.5013 16.0963 159.836 16.0182C223.171 15.9401 279.119 57.2531 297.68 117.807C316.241 178.36 293.056 243.933 240.556 279.36H240.525Z" fill="#21806A"/>
<path d="M174.964 32.8762C170.569 32.3802 166.609 35.5401 166.117 39.9303C165.621 44.3245 168.781 48.2851 173.171 48.7773C225.26 54.89 266.112 96.3632 271.436 148.539C271.846 152.624 275.28 155.733 279.385 155.737H280.186C282.303 155.534 284.248 154.499 285.599 152.859C286.951 151.218 287.591 149.109 287.384 146.996C281.291 87.3054 234.553 39.8639 174.964 32.8762V32.8762Z" fill="#21806A"/>
</svg>
