<svg width="449" height="479" viewBox="0 0 449 479" fill="none" xmlns="http://www.w3.org/2000/svg">
<path d="M152.406 366.996L220.898 374.568C224.128 374.927 227.257 373.296 228.806 370.441C230.358 367.585 230.023 364.074 227.963 361.562L206.733 335.619L166.906 283.968L205.009 291.158C208.133 291.743 211.313 290.417 213.096 287.783C214.878 285.146 214.925 281.705 213.22 279.021L159.131 194.125C157.645 191.62 154.91 190.122 152 190.22C149.086 190.317 146.456 191.991 145.138 194.589C143.819 197.187 144.022 200.296 145.661 202.707L189.814 272.07L160.052 266.479C155.745 265.668 151.59 268.477 150.736 272.776C150.088 273.041 149.476 273.392 148.922 273.821C145.442 276.513 144.794 281.514 147.475 285.006L194.199 345.575L203.187 356.553L153.283 351.033C152.698 350.974 152.113 350.974 151.528 351.033L82.0914 358.726C77.8743 359.19 74.7533 362.869 74.9874 367.101C75.2176 371.338 78.7169 374.654 82.9613 374.658C83.2578 374.658 83.5543 374.646 83.8469 374.615L152.406 366.996Z" fill="#FF9C48"/>
<path d="M163.337 118.801C165.311 122.745 170.109 124.345 174.057 122.371C178.005 120.397 179.604 115.595 177.626 111.651L159.595 75.53C157.621 71.5781 152.819 69.9786 148.871 71.9526C144.919 73.9266 143.32 78.7289 145.294 82.6808L163.337 118.801Z" fill="#FF9C48"/>
<path d="M147.716 144.366C145.992 145.61 144.837 147.49 144.506 149.589C144.17 151.688 144.689 153.834 145.941 155.55L175.848 196.68C178.442 200.249 183.439 201.041 187.009 198.447C190.578 195.853 191.37 190.856 188.772 187.286L158.878 146.133C156.283 142.563 151.286 141.771 147.716 144.366Z" fill="#FF9C48"/>
<path d="M406.959 361.745L438.71 367.035C441.824 367.558 444.948 366.196 446.692 363.567C448.432 360.938 448.467 357.528 446.77 354.867L398.657 279.263H424.05C427.124 279.263 429.921 277.504 431.255 274.734C432.586 271.964 432.211 268.676 430.288 266.28L381.153 204.865L390.149 207.116C393.184 207.896 396.395 206.835 398.361 204.396C400.327 201.958 400.686 198.595 399.282 195.794L327.376 51.9827C325.874 49.4626 323.159 47.9216 320.225 47.9216C317.291 47.9216 314.576 49.4626 313.074 51.9827L241.168 195.794C239.772 198.588 240.131 201.935 242.085 204.369C244.04 206.803 247.235 207.876 250.262 207.116L259.25 204.865L246.681 220.532L210.849 171.26L230.744 175.255C233.737 175.879 236.822 174.717 238.66 172.274C240.513 169.848 240.821 166.583 239.46 163.852L159.564 4.06109C158.062 1.54485 155.347 0 152.413 0C149.48 0 146.765 1.54485 145.263 4.06109L65.3672 163.852C64.0057 166.583 64.3139 169.848 66.1669 172.274C68.0044 174.717 71.0902 175.879 74.0823 175.255L93.9704 171.26L42.0852 242.604C40.1541 245.265 40.0488 248.838 41.8238 251.608C43.5793 254.401 46.8875 255.806 50.1137 255.135L71.687 250.82L25.8174 322.909C24.1243 325.57 24.1555 328.979 25.8993 331.609C27.6431 334.238 30.768 335.6 33.8811 335.077L60.8692 330.579L2.41055 402.036C0.456076 404.428 0.0542593 407.728 1.37675 410.517C2.69533 413.307 5.50806 415.082 8.59386 415.085C8.89035 415.085 9.18683 415.066 9.47942 415.035L120.447 402.699V471.012C120.447 475.424 124.025 479.002 128.437 479.002H176.374C180.786 479.002 184.364 475.424 184.364 471.012V402.699L206.526 405.169L193.032 435.855C191.87 438.5 192.225 441.563 193.957 443.872C195.693 446.181 198.537 447.375 201.396 446.993L288.228 435.395V471.012C288.228 475.424 291.805 479.002 296.217 479.002H344.155C348.567 479.002 352.144 475.424 352.144 471.012V435.395L438.976 446.97C439.323 447.016 439.678 447.044 440.029 447.044C442.85 447.044 445.459 445.557 446.899 443.131C448.338 440.704 448.393 437.7 447.043 435.227L406.959 361.745ZM86.683 324.267C88.6375 321.875 89.0393 318.575 87.7168 315.786C86.3943 312.996 83.5855 311.221 80.4997 311.221C80.0589 311.221 79.6181 311.26 79.1811 311.331L48.9239 316.375L95.2655 243.603C96.9742 240.907 96.9157 237.451 95.1134 234.818C93.3111 232.13 90.0536 230.807 86.8898 231.486L67.0057 235.481L118.891 164.133C120.834 161.472 120.943 157.891 119.164 155.113C117.389 152.34 114.089 150.939 110.858 151.591L86.9327 156.381L152.406 25.4823L217.847 156.366L193.918 151.571C190.695 150.927 187.403 152.328 185.628 155.098C183.857 157.864 183.958 161.437 185.889 164.102L237.727 235.414L219.302 231.747L217.921 231.486C217.133 231.303 216.326 231.248 215.522 231.326C215.027 231.396 214.535 231.517 214.059 231.685C213.79 231.728 213.525 231.794 213.263 231.876C213.014 231.978 212.799 232.165 212.557 232.29C212.105 232.512 211.676 232.777 211.282 233.089C211.235 233.128 211.196 233.171 211.161 233.218C210.599 233.682 210.1 234.217 209.682 234.818C209.553 235.044 209.44 235.278 209.339 235.52C209.066 235.961 208.84 236.429 208.66 236.916C208.192 238.395 208.165 239.979 208.578 241.473C208.793 242.226 209.113 242.948 209.53 243.611L255.872 316.39L226.964 311.596L225.782 311.37C222.525 310.757 219.228 312.22 217.496 315.041C215.76 317.865 215.947 321.462 217.968 324.091L218.768 325.067C218.823 325.145 218.846 325.242 218.912 325.32L277.593 396.98L219.111 390.454C219.033 390.45 218.955 390.45 218.877 390.454L177.334 385.843L177.205 385.804L153.237 383.166C152.659 383.1 152.074 383.1 151.493 383.166L127.524 385.804L127.391 385.843L27.1867 396.98L86.683 324.267ZM168.385 463.023H136.427V400.924L152.406 399.153L168.385 400.924V463.023ZM336.165 463.023H304.207V433.261L320.186 431.135L336.165 433.261V463.023ZM345.465 418.382C345.036 418.253 344.599 418.167 344.155 418.121C344.057 418.121 343.979 418.167 343.881 418.175L321.239 415.156C320.541 415.058 319.831 415.058 319.133 415.156L296.49 418.175C296.393 418.175 296.315 418.121 296.217 418.121C295.773 418.171 295.332 418.261 294.899 418.382L213.404 429.251L223.192 407.014L295.355 415.004C298.585 415.366 301.714 413.736 303.267 410.88C304.819 408.024 304.488 404.509 302.424 401.997L243.934 330.563L270.961 335.046C271.73 335.171 272.514 335.182 273.286 335.085C275.592 334.792 277.652 333.513 278.935 331.578C279.349 330.95 279.669 330.267 279.887 329.549V329.483C280.016 328.983 280.094 328.472 280.117 327.957C280.117 327.712 280.23 327.478 280.23 327.24C280.23 326.998 280.184 326.966 280.176 326.838C280.137 325.426 279.727 324.048 278.982 322.843L260.959 294.521L233.101 250.828L253.601 254.916L254.678 255.135C257.904 255.763 261.185 254.354 262.948 251.585C264.712 248.815 264.602 245.245 262.667 242.589L256.367 233.928L286.422 196.38C288.567 193.7 288.762 189.954 286.909 187.068C285.056 184.181 281.569 182.8 278.241 183.635L263.14 187.415L320.186 73.4195L377.174 187.384L362.076 183.603C358.749 182.769 355.261 184.15 353.408 187.036C351.555 189.923 351.75 193.668 353.892 196.345L407.423 263.284H384.102C381.184 263.28 378.5 264.868 377.096 267.427C375.691 269.982 375.793 273.103 377.357 275.561L423.699 348.333L393.442 343.289C390.426 342.786 387.387 344.046 385.616 346.535C383.841 349.027 383.646 352.312 385.109 354.996L425.505 429.048L345.465 418.382Z" fill="#FF9C48"/>
<path d="M322.581 149.64C323.935 152.347 326.705 154.06 329.732 154.056C332.502 154.056 335.073 152.62 336.528 150.268C337.979 147.912 338.112 144.974 336.875 142.497L327.376 123.467C325.402 119.515 320.599 117.916 316.651 119.89C312.7 121.864 311.1 126.666 313.074 130.618L322.581 149.64Z" fill="#FF9C48"/>
<path d="M373.277 323.732C376.386 324.247 379.511 322.89 381.25 320.26C382.99 317.631 383.022 314.225 381.328 311.565L340.441 247.305H357.563C360.633 247.301 363.43 245.538 364.76 242.772C366.087 240.002 365.712 236.717 363.793 234.322L326.424 187.606C323.67 184.161 318.637 183.599 315.192 186.358C311.748 189.116 311.19 194.148 313.944 197.593L340.959 231.326H325.882C322.967 231.326 320.283 232.914 318.883 235.473C317.478 238.028 317.58 241.145 319.148 243.603L358.234 305.026L333.918 300.977C330.906 300.478 327.871 301.738 326.1 304.227C324.329 306.716 324.134 310 325.593 312.68L367.253 389.045L325.78 383.517C322.917 383.073 320.038 384.208 318.251 386.49C316.468 388.772 316.058 391.842 317.186 394.511C318.309 397.183 320.791 399.032 323.67 399.352L380.771 406.967C381.122 407.014 381.473 407.037 381.824 407.037C384.644 407.037 387.25 405.551 388.69 403.128C390.129 400.706 390.188 397.706 388.838 395.229L347.502 319.433L373.277 323.732Z" fill="#FF9C48"/>
</svg>
