<?xml version="1.0" encoding="UTF-8"?>
<svg id="first-logo" data-name="first-logo" xmlns="http://www.w3.org/2000/svg" viewBox="0 0 2500 2500">
  <defs>
    <style>
      .cls-1 {
        fill: #fff;
      }

      .cls-1, .cls-2, .cls-3 {
        fill-rule: evenodd;
      }

      .cls-2 {
        fill: #e0a13f;
      }

      .cls-3 {
        fill: #3c8dcb;
      }
    </style>
  </defs>
  <path class="cls-1" d="M-100.4-49.2H2533.2V2538H-100.4V-49.2Z"/>
  <path class="cls-2" d="M1733.19,708.67c113.51,128.08,171.72,291.07,312.9,395.86,39.31,23.28,94.61,24.73,136.82,7.28,4.36,0,8.74,7.28,4.36,10.19-53.85,36.38-139.7,30.56-192.1-4.37-7.29-7.28-4.38-2.91-10.21-7.28-88.76-64.04-154.28-161.55-221.23-245.96-117.87-170.28-298.33-304.18-505.02-301.26-197.93,0-362.39,78.6-538.49,128.08-117.88,30.56-263.42,24.73-356.56-52.4-40.75-33.47-87.31-75.68-116.43-119.35,2.91-7.29,11.63-5.82,16-2.92,106.24,141.18,307.09,98.97,452.62,69.86,253.23-82.95,590.88-203.75,845.56-34.93,62.62,42.22,120.83,97.53,171.77,157.19h0Zm519.57-157.18v7.28c-62.59,130.98-74.23,298.34-68.42,445.34-1.44,2.91-4.36,5.81-7.28,4.36l-8.72-10.19c-18.92-100.42-49.49-196.48-55.33-302.71-5.82-50.95,23.28-93.15,65.51-119.35,20.36-10.19,71.31-34.93,72.77-27.65l1.45,2.93h0Z"/>
  <path class="cls-2" d="M1594.93,874.58c1.44,2.91,1.44,4.36,0,7.28l-5.82,4.37-7.28-1.47c-72.77-39.3-151.36-66.95-235.76-82.95-209.59-10.19-382.78,78.6-567.61,132.43-179.01,53.85-358.02-13.1-471.54-151.36,0-7.28,4.36-8.74,13.1-8.74,91.68,96.07,229.95,119.35,359.48,87.33,195.03-55.32,375.49-152.81,599.62-129.53,116.43,17.47,218.31,75.7,315.81,142.64Zm8.73,215.4c1.44,5.82-2.92,8.73-5.82,10.18-103.33-58.21-244.51-68.4-360.94-32.01-203.74,59.67-442.44,176.09-654.92,72.76-61.13-29.1-123.71-58.22-171.73-112.07l-1.45-2.92,4.36-7.28,7.28-1.45c2.92,1.45,53.85,40.75,61.13,45.12,209.58,117.88,432.26-16,634.55-58.21,168.81-37.85,353.66-13.09,487.56,85.87h0Z"/>
  <path class="cls-3" d="M1143.76,1317.01c8.73,1.44,10.18-7.28,14.55-13.1l1.45,77.13c-13.1-21.84-34.91-48.03-61.11-56.77-39.3-8.72-84.41-4.36-114.98,21.84-50.95,46.59-45.12,120.8-29.1,183.38,13.1,32.02,43.66,55.3,75.67,65.51,30.56,4.36,59.67,0,84.42-14.57v-65.48c2.91-20.39-17.47-33.49-24.75-36.41q-11.65-4.36-13.1-5.8h117.88c0,1.44-1.45,1.44-10.19,2.89-20.38,7.29-32.01,17.48-30.56,34.93v94.61c-75.68,8.72-168.81,18.9-221.21-42.2-32.01-33.49-45.12-81.52-37.83-125.18,4.36-45.1,34.91-96.03,82.95-116.43,48.01-23.28,113.5-17.46,165.91-4.36h0Zm698.58,0s11.65,0,17.46-11.65v75.69c-10.18-17.46-21.82-48.03-43.64-53.85-14.57-5.82-56.77-10.18-75.69,2.92-16,8.74-23.28,24.75-27.64,39.29-2.92,17.48,0,33.49,14.54,43.67,49.49,36.38,136.82,36.38,147,113.51,2.92,33.49-24.75,64.04-53.85,75.69-42.2,14.54-87.31,11.62-128.08,0q-1.44-1.47-4.36-1.47h-4.36l-2.92,2.92-11.65,13.1v-85.85c10.18,26.2,29.1,49.47,55.3,61.13,29.1,7.28,66.95,8.72,90.26-11.65,14.54-16,24.72-37.85,17.46-61.13-40.76-66.95-187.76-43.67-154.28-158.65,14.54-36.38,50.95-50.92,85.85-55.3,34.95-4.38,77.16,14.54,78.6,11.62h0Zm-1369.5,17.48l24.75,43.64v-66.95H255.98c16,8.74,39.3,10.18,46.56,32.02v232.87c-8.73,17.46-30.56,21.82-46.56,29.1h248.86v-68.39c-7.28,14.54-16,33.46-26.2,46.56-2.91,2.92-4.36,2.92-5.82,2.92h-132.43v-125.16h91.7c17.47-4.36,26.2,27.64,34.93,40.74v-103.33l-8.73,18.92c-20.38,29.1,10.19,18.92-117.88,20.36v-106.24h126.62l2.92,1.47,2.89,1.45h0Zm170.27-23.31c59.67,74.23,110.61,154.28,170.28,227.05v-196.47c2.91-11.65-29.12-24.75-45.12-30.57h109.15c-13.1,8.74-43.67,14.57-42.2,29.1v270.72h-18.92c-65.48-85.87-122.25-176.1-189.19-257.62v219.77c1.44,18.92,30.56,24.72,40.75,32.02h-112.07c20.38-11.65,45.12-11.65,45.12-33.49-1.45-120.77,0-112.07,0-232.85,1.45-8.74-17.46-16-45.12-27.66h87.33s0-.01,0-.01Zm717.5,0c-14.54,8.74-39.29,5.82-46.56,27.66v247.41c74.23,0,135.35,10.18,142.62-37.85,1.44-7.28,2.92-13.1,8.74-17.46v74.23h-237.23c16-10.18,40.76-11.65,45.12-33.49v-229.94c-8.74-18.92-33.49-21.84-46.57-30.57h133.89Zm264.87,1.47c-1.44,4.36-48,21.84-46.56,32.02v232.85c-1.44,14.57,52.38,24.75,46.56,27.66h-130.97c-1.47-1.47,45.12-13.1,43.64-29.1v-232.87c0-11.65-52.38-33.46-40.74-32.02l128.06,1.47h0Zm417.69-1.47c-16,7.28-37.82,7.28-45.12,26.2v110.62h158.65v-106.24l-2.92-7.28-14.57-11.65-21.82-10.18,123.69-1.47c-16,7.28-46.56,18.92-43.64,32.02v235.76c-2.92,7.29,18.9,18.92,45.12,29.13h-128.08c18.9-8.74,45.12-18.92,42.2-30.57,2.92-50.95-1.47-69.87,0-110.59h-158.65v110.59c-2.89,5.82,30.57,26.2,46.59,30.57h-132.43c16-8.74,46.56-16,45.12-30.57v-235.76c-1.47-14.57-14.57-16-18.92-17.48-10.18-7.28-14.57-8.72-26.2-13.1h130.97s0-.01,0-.01Zm-1462.64,414.77c2.91,2.92-36.39,8.74-43.66,26.2v276.54l-21.83-1.47c-62.58-87.31-125.17-171.72-189.2-257.59l1.47,224.13c-5.84,18.92,43.66,23.28,43.66,29.1h-113.51c0-5.82,50.95-11.65,46.57-27.66v-228.49c-4.36-21.84-27.64-33.46-46.57-37.85h90.24l164.46,225.61c1.45-101.88,1.45-125.16,0-202.33,0-13.1-43.66-20.36-46.57-26.2h114.95Zm624.35,77.13c-26.2-48.03-24.75-59.66-39.3-59.66h-64.03l-1.47,248.86c5.82,0-10.18,11.65,45.12,30.57h-133.89c17.46-10.18,45.12-10.18,46.57-32.02v-247.41c-53.85,0-68.4-2.92-80.05,8.72-11.63,16.03-17.46,33.49-26.2,49.49v-72.77h251.78l1.45,74.23h0Zm277.98-72.75c21.84,8.72,39.29,14.54,37.82,23.28-1.41,170.28,1.47,171.72-4.33,203.74,4.33-16-2.92,36.41-46.59,46.59-40.76,10.18-87.31,2.92-110.59-32.02-20.39-49.49-14.57-55.3-13.1-219.77-1.47-10.18,11.62-10.18,46.56-23.28h-129.52c42.2,17.48,37.82,14.57,39.29,23.28-1.47,173.2,1.44,199.38,20.36,231.41,32.02,56.77,130.99,53.85,151.36,45.13,7.29-2.92,14.57-4.38,20.39-7.29,58.21-32.02,52.38-75.67,53.82-266.33,0,0,0-5.82,1.47-7.28,5.82-7.28,34.93-16,34.93-18.92h-103.33l1.47,1.47h0Zm750.98,62.57c-11.65-13.1-16-37.85-36.38-46.56h-122.25l-1.47,114.95h106.24c16-11.62,14.57-27.64,24.75-40.74v101.86c-11.65-13.07-8.74-32-26.2-40.74h-104.8v123.69h132.43c18.92-11.62,23.31-33.46,34.93-50.92v71.31l-250.33-1.47c14.57-7.28,37.85-11.62,45.12-29.1v-240.14c2.92-10.18-27.66-14.54-45.12-23.28h243.05v61.13h.03Zm-414.77-64.03c18.92,0,48.03,11.65,61.13,37.85,8.72,10.18,10.18,43.67,1.44,61.13-14.54,29.1-37.85,30.54-65.48,43.67,21.84,2.89,52.38,14.54,58.21,40.74l23.28,93.15c2.92,16,11.65,14.57,21.84,20.39-33.46,1.44-50.95,1.44-56.77,0-4.36-1.47-5.82-7.28-8.72-21.84-14.57-59.69-20.39-125.16-58.21-122.25h-64.06v113.51c-1.44,8.74,29.13,26.2,43.67,30.57l-128.08-1.47c13.1-7.28,46.59-13.1,45.12-30.54,0-154.28,1.47-130.99,1.47-141.18,0-5.82-1.47-24.75-1.47-82.95,0-20.39,1.47-18.92-46.56-40.76h173.19Zm-85.87,18.92v113.51c46.59-2.92,85.87,10.21,109.15-29.1,8.74-11.62,10.18-33.46,1.44-52.38-14.54-40.76-69.84-30.58-110.59-32.02Zm-828.11,243.05c13.1,27.66,43.66,30.54,40.75,32.02h-119.35c-7.28-1.47,39.29-13.1,32.02-29.1-13.11-37.85-11.65-34.93-26.2-71.33h-123.71c-16.02,36.41-14.57,32.05-33.47,68.42-8.74,14.54,36.38,30.54,34.93,32.02h-100.42c-4.37-2.92,33.47-8.74,43.66-40.76l119.35-260.51,11.63-1.47,120.81,270.72h0Zm-138.27-208.13l-50.93,119.33h106.24c-26.19-53.85-27.65-69.86-55.3-119.33h0Z"/>
</svg>