<?xml version="1.0" encoding="UTF-8"?>
<svg id="five-logo" data-name="five-logo" xmlns="http://www.w3.org/2000/svg" viewBox="0 0 2500 2500">
  <defs>
    <style>
      .cls-1 {
        fill: #fff;
      }

      .cls-1, .cls-2, .cls-3 {
        fill-rule: evenodd;
      }

      .cls-2 {
        fill: #f7d730;
      }
    </style>
  </defs>
  <path class="cls-1" d="M-28.05-81.2H2558.8V2538H-28.05V-81.2Z"/>
  <g>
    <path class="cls-2" d="M110.29,915.16h467.38v669.68H110.29V915.16Zm67.36,602.26H510.07V982.6H177.66v534.82h0Z"/>
    <path class="cls-3" d="M888.13,1215.62h-28.91c-37.98-53.64-75.64-106.95-113.25-167.19h-.27v167.19h-31.96v-233.12h28.94c37.98,53.27,75.59,106.2,112.85,166.13h.66v-166.13h31.96v233.12h-.01Zm75.96-92.27c9.27-30.65,18.61-58.95,26.95-94.93h.67c9.31,35.98,17.65,64.29,26.3,94.93h-53.93Zm15.28-140.85l-80.54,233.12h34.63l20.26-63.63h70.31l18.3,63.63h44.65l-74.29-233.12h-33.32Zm145.21,233.12v-201.85h-61.3v-31.27h162.5v31.27h-61.24v201.85h-39.96Zm114.16-233.12h39.69v233.12h-39.69v-233.12Zm162.9,203.77c-41.67,0-56.31-45.95-56.31-90.58s16.64-83.91,56.31-83.91,56.21,40.97,56.21,83.91-14.62,90.58-56.21,90.58Zm0,33.29c60.92,0,98.87-54.25,98.87-123.89,0-65.25-41.89-117.19-98.87-117.19s-99,51.94-99,117.19c.01,69.65,38.03,123.89,99,123.89Zm297.67-3.94h-28.95c-38-53.64-75.64-106.95-113.23-167.19h-.32v167.19h-31.92v-233.12h28.95c37.92,53.27,75.56,106.2,112.8,166.13h.69v-166.13h32v233.12h-.01Zm75.93-92.27c9.35-30.65,18.62-58.95,27-94.93h.66c9.33,35.98,17.63,64.29,26.26,94.93h-53.93Zm15.36-140.85l-80.58,233.12h34.66l20.26-63.63h70.3l18.31,63.63h44.6l-74.28-233.12h-33.27Zm119.15,0h39.7v201.8h78.88v31.32h-118.58v-233.12Zm-1046.18,428.11v96.21c-21.34,8.37-43.66,14.32-66.24,14.32-68.62,0-111.9-53.28-111.9-121.89,0-63.63,43.28-119.22,113.21-119.22,21.61,0,43.27,8.03,56.6,18l-13,27.64c-10.64-6.6-27.33-12.27-42.62-12.27-42.59,0-71.59,33.64-71.59,86.6s33.32,87.84,67.62,87.84c10.61,0,19.65-1.27,28.01-5.64v-71.59h39.89Zm142.93-95.21h-66.68v63.9h65.26v31.31h-65.26v75.21h78.58v31.35h-118.57v-233.13h106.66v31.36Zm123.2,172.43c-41.67,0-56.34-45.91-56.34-90.57s16.65-83.88,56.34-83.88,56.21,40.96,56.21,83.88-14.68,90.57-56.21,90.57Zm0,33.31c60.91,0,98.84-54.28,98.84-123.89,0-65.25-41.93-117.23-98.84-117.23s-98.92,51.98-98.92,117.23c-.01,69.62,37.88,123.89,98.92,123.89Zm290.63-110.53v96.21c-21.34,8.37-43.59,14.32-66.26,14.32-68.57,0-111.89-53.28-111.89-121.89,0-63.63,43.32-119.22,113.25-119.22,21.66,0,43.27,8.03,56.56,18l-13,27.64c-10.66-6.6-27.21-12.27-42.55-12.27-42.68,0-71.66,33.64-71.66,86.6s33.33,87.84,67.64,87.84c10.69,0,19.64-1.27,27.99-5.64v-71.59h39.92Zm76.68-95.21h17.6c23.58,0,36.94,13.59,36.94,37.6,0,31.27-18.95,45.24-37.95,46.24-4.01,.4-13.35,.74-16.59,1.02v-84.86h0Zm101.2,201.77l-47.04-96.53c25.64-13.62,40.37-41.33,40.37-69.31,0-45.33-27.69-67.29-72.32-67.29h-62.27v233.13h40.05v-87.91h17.96l37.56,87.91h45.68Zm65.91-92.25c9.3-30.69,18.62-58.96,26.98-94.93h.66c9.33,35.97,17.63,64.24,26.29,94.93h-53.93Zm15.29-140.88l-80.61,233.13h34.63l20.34-63.63h70.3l18.21,63.63h44.71l-74.3-233.13h-33.27Zm182.47,0h-62.27v233.13h39.97v-87.91h17.94c47.65,0,76.65-38.64,76.65-77.94,0-45.34-27.66-67.29-72.29-67.29h0Zm-5.6,115.21c-4.15,.38-13.9,.69-16.69,.96v-84.81h17.94c23.31,0,36.68,13.59,36.68,37.6,0,31.27-18.92,45.25-37.92,46.25Zm263.01,117.92h-39.95v-112.19h-82.98v112.19h-39.52v-233.13h39.52v89.58h82.98v-88.92h39.95v232.47h0Zm38.26-233.13h39.71v233.13h-39.71v-233.13Zm219.46,42.32c-9.68-6-25.59-12.97-40.98-12.97-40.69,0-70.22,33.64-70.22,86.6s32.61,87.84,71.26,87.84c14.15-.07,27.99-4.11,39.95-11.67l11.02,29c-12.06,8.31-33.31,15.98-52.59,15.98-68.62,0-111.94-53.28-111.94-121.89,0-63.63,42.94-119.22,112.53-119.22,20.7,0,39.95,8.72,53.68,18l-12.7,28.33h0Z"/>
  </g>
</svg>