<?xml version="1.0" encoding="UTF-8"?>
<svg id="second-logo" data-name="second-logo" xmlns="http://www.w3.org/2000/svg" viewBox="0 0 2500 2500">
  <defs>
    <style>
      .cls-1 {
        fill: #fff;
        fill-rule: evenodd;
      }

      .cls-2 {
        fill: #fcb716;
      }

      .cls-3 {
        fill: #5d9741;
      }

      .cls-4 {
        fill: #085eab;
      }
    </style>
  </defs>
  <path class="cls-1" d="M-47.42-49.2H2538V2538H-47.42V-49.2Z"/>
  <g>
    <path d="M761.35,1091.49h-51.57v-34.38h140.42v34.38h-51.57v135.1h-37.28v-135.1Zm117.43-34.38h37.28v67.05h68.75v-67.05h37.28v169.48h-37.28v-68.05h-68.75v68.05h-37.28v-169.48Zm184.01,0h127.85v33.16h-90.8v34.38h79.88v33.18h-79.88v35.59h91.99v33.16h-129.05v-169.48Zm227.35,85.22v-.49c0-48.18,36.33-87.65,88.36-87.65,31.96,0,51.08,10.66,66.84,26.16l-23.74,27.36c-13.04-11.87-26.38-19.12-43.33-19.12-28.56,0-49.15,23.71-49.15,52.77v.49c0,29.04,20.11,53.25,49.15,53.25,19.36,0,31.23-7.75,44.54-19.85l23.72,23.97c-17.43,18.65-36.8,30.27-69.49,30.27-49.86,0-86.91-38.49-86.91-87.16m186.19-85.22h37.3v135.59h84.48v33.89h-121.78v-169.48Zm151.59,0h37.3v169.48h-37.3v-169.48Zm79.64,0h40.2l44.53,71.66,44.56-71.66h40.18v169.48h-37.02v-110.64l-47.73,72.39h-.96l-47.22-71.66v109.92h-36.55v-169.48Zm268.28-1.22h34.36l72.63,170.69h-38.97l-15.48-38.01h-71.66l-15.52,38.01h-38.01l72.66-170.69Zm39.21,99.75l-22.51-54.96-22.51,54.96h45.01Zm111.6-64.15h-51.53v-34.38h140.4v34.38h-51.58v135.1h-37.28v-135.1Zm117.44-34.38h127.83v33.16h-90.79v34.38h79.89v33.18h-79.89v35.59h91.99v33.16h-129.03v-169.48Zm-1534.31,305.42v-.43c0-43,32.4-78.23,78.85-78.23,28.52,0,45.59,9.52,59.65,23.34l-21.19,24.42c-11.68-10.61-23.55-17.07-38.67-17.07-25.49,0-43.85,21.17-43.85,47.08v.45c0,25.91,17.92,47.54,43.85,47.54,17.28,0,27.86-6.92,39.75-17.73l21.17,21.4c-15.55,16.65-32.83,27.02-62.01,27.02-44.51,0-77.54-34.38-77.54-77.79m150.6,0v-.43c0-43,33.91-78.23,80.58-78.23s80.17,34.78,80.17,77.78v.45c0,42.98-33.93,78.23-80.59,78.23s-80.16-34.79-80.16-77.79m125.95,0v-.43c0-25.93-19.01-47.54-45.8-47.54s-45.38,21.17-45.38,47.08v.45c0,25.91,19.01,47.54,45.8,47.54s45.38-21.17,45.38-47.1m64.61-76.07h69.14c19.22,0,34.13,5.41,44.09,15.35,8.41,8.41,12.95,20.3,12.95,34.57v.43c0,24.42-13.17,39.75-32.4,46.87l36.93,54.02h-38.88l-32.42-48.4h-26.14v48.4h-33.28v-151.24h0Zm66.98,73.47c16.22,0,25.5-8.64,25.5-21.4v-.42c0-14.27-9.94-21.62-26.14-21.62h-33.06v43.44h33.7Zm89.25-73.45h61.79c36.08,0,57.91,21.4,57.91,52.3v.42c0,35.02-27.24,53.17-61.14,53.17h-25.29v45.36h-33.27v-151.25Zm59.63,76.27c16.63,0,26.37-9.94,26.37-22.91v-.43c0-14.9-10.37-22.89-27.01-22.89h-25.72v46.23h26.37Zm78.01-.21v-.43c0-43,33.95-78.23,80.58-78.23s80.17,34.78,80.17,77.78v.45c0,42.98-33.91,78.23-80.61,78.23s-80.14-34.79-80.14-77.79m125.96,0v-.43c0-25.93-19.02-47.54-45.82-47.54s-45.36,21.17-45.36,47.08v.45c0,25.91,19.01,47.54,45.8,47.54s45.38-21.17,45.38-47.1m64.4-76.07h69.12c19.26,0,34.15,5.41,44.09,15.35,8.43,8.41,12.97,20.3,12.97,34.57v.43c0,24.42-13.15,39.75-32.42,46.87l36.97,54.02h-38.9l-32.42-48.4h-26.16v48.4h-33.27v-151.24h0Zm67.01,73.47c16.18,0,25.46-8.64,25.46-21.4v-.42c0-14.27-9.92-21.62-26.12-21.62h-33.07v43.44h33.73Zm141.07-74.54h30.69l64.8,152.32h-34.76l-13.84-33.93h-63.96l-13.82,33.93h-33.95l64.83-152.32Zm35,89.01l-20.09-49.05-20.09,49.05h40.18Zm99.61-57.25h-46.02v-30.68h125.31v30.68h-46.02v120.57h-33.27v-120.57Zm106.31-30.68h33.27v151.25h-33.27v-151.25Zm64.4,76.06v-.43c0-43,33.91-78.23,80.54-78.23s80.21,34.78,80.21,77.78v.45c0,42.98-33.93,78.23-80.61,78.23s-80.14-34.79-80.14-77.79m125.98,0v-.43c0-25.93-19.03-47.54-45.83-47.54s-45.38,21.17-45.38,47.08v.45c0,25.91,19.01,47.54,45.78,47.54s45.44-21.17,45.44-47.1m64.36-76.07h30.69l70.88,93.13v-93.13h32.83v151.25h-28.3l-73.24-96.17v96.17h-32.87v-151.25Z"/>
    <path class="cls-2" d="M373.66,1449.72c-73.95,0-138.59-40.48-173.02-100.44-8.19-3.65-15.98-8.13-23.25-13.37-12.55-9.09-23.67-20.3-33.14-33.41,23.85,104.68,117.62,183.07,229.42,183.07,13.19,0,25.2-.8,37.82-2.89-.61-12.83-6.1-31.93-7.99-35.2-9.88,1.48-19.85,2.22-29.84,2.23m0-398.95c74.32,0,139.23,40.88,173.54,101.35,7.99,3.61,15.6,8.02,22.71,13.14,12.67,9.16,23.88,20.51,33.39,33.74-23.47-105.21-117.51-184.1-229.65-184.1-13.26,0-26.28,1.17-38.95,3.28,.52,9.33,4.03,23.74,9.47,34.76,9.76-1.47,19.62-2.2,29.49-2.17"/>
    <path class="cls-3" d="M619.18,1298.45c-2.36-29.72-10.97-59.63-28.09-85.15-8.53-12.7-19.22-24.16-31.84-33.27-12.62-9.11-27.22-15.75-42.63-18.87-3.86-.78-7.76-1.34-11.68-1.69-1.95-.19-3.98-.28-6.06-.38l-2.66-.04-3.11,.04c-7.97,.21-15.84,1.44-23.38,3.44-15.08,3.98-28.99,10.77-41.64,19.27-3.16,2.14-6.24,4.4-9.25,6.76-2.99,2.37-5.88,4.87-8.66,7.49-5.36,5.01-10.56,10.18-15.61,15.5,0,0-.05,.07-.07,.07-8.36,10.61-15.92,21.84-22.61,33.58-8.86,15.84-17.4,36.05-19.71,41.63-.22,.53-.43,1.05-.65,1.58l28.5-31.95c9.51-10.59,19.03-21.15,28.75-31.3,4.77-5.04,9.69-9.93,14.76-14.67l3.77-3.41c3.22-2.82,6.62-5.43,10.17-7.81,.29,16.44-.33,46.87-6.71,86.71-5.18,32.42-13.94,65.44-24.42,96.55l-.16-.31c-5.27-10.97-10.79-21.45-15.73-32.22-7.11-15.54-9.45-41.47-8.79-56.77-2.05,10.9-1.08,39.65,5.3,58.02,4.05,11.54,9.33,22.44,13.78,33.44,9.17,22.01,16.88,44.6,23.1,67.63,6.19,22.95,10.98,46.25,14.34,69.78,1.67,11.73,2.99,23.5,3.9,35.28,.88,11.66,1.48,23.74,1.27,34.95l-.4,22.16,16.91-14.93c21.22-20.26,40.55-41.4,59.11-63.66,18.44-22.24,35.75-45.53,51.17-70.23,15.31-24.68,28.92-50.8,38.31-78.96,4.67-14.06,8.21-28.56,9.96-43.69,1.6-14.73,1.97-29.67,.76-44.58m-181.73,161.93c-1.17-3.7-2.26-7.42-3.53-11.11-5.03-14.77-10.68-29.32-16.93-43.62l-5.49-12.2c12.65-33.77,24.14-69.4,31.77-104.56,4.17-19.31,7.09-39,9.28-58.78,1.12-9.85,1.89-19.79,2.35-29.79,.16-4.66,.33-7.96,.36-11.33,2.7-1.3,5.43-2.57,8.17-3.79,2.69-1.2,6.82-2.42,9.44-3.14,1.53,17.5,2.14,34.43,2.24,52.59,.05,28.04-1.54,56.06-4.76,83.91-5.61,48.27-16.44,96.01-32.91,141.83m22.09,96.49c-.07-.59-.12-1.1-.18-1.39-1.71-12.06-3.81-24.07-6.31-35.99-2.36-11.3-5.04-22.53-8.03-33.68l-2.52-8.78c21.03-49.97,35.12-102.81,42.98-156.51,4.13-28.35,6.59-56.97,7.37-85.65,.43-18.72,.07-37.33-1.01-56.1,1.15-.09,2.4-.16,3.7-.21,5.36-.21,9.18,.09,9.18,.09,2.07,.24,4.28,.58,6.41,.94,2.94,31.1,3.86,61.58,3.58,93.4-.4,35.39-2.61,70.81-7.04,105.9-4.42,35.11-11.09,69.98-20.75,103.95-7.19,25.35-16.35,50.1-27.39,74.02m44.3-33.53c-9.98,11.89-23.52,26-32.71,35.35,11.26-23.28,20.76-47.36,28.42-72.06,10.74-34.53,18.39-69.9,23.78-105.59,5.36-35.65,8.5-71.64,9.77-107.66,1.01-29.22,.69-58.46-.94-87.65,6.24,3.08,14.09,8.48,14.09,8.48,.8,.54,1.51,1.25,2.27,1.86,1.97,10.54,3.62,21.14,4.94,31.79,1.82,15.12,3.06,30.33,3.74,45.59,1.35,30.55,.42,61.16-2.78,91.58-4.87,46.27-13.44,88.22-29.3,131.24-6.84,9.21-13.94,18.24-21.27,27.06m95.02-182.41c-1.53,13.22-4.76,26.63-9.07,39.61-8.45,25.34-20.89,49.62-35.14,72.75l-7.87,11.49c9.73-31.97,16.92-64.66,21.48-97.76,4.24-31.15,6.12-62.67,5.66-94.19-.19-15.77-1.01-31.53-2.45-47.24-.21-2.17-.43-4.34-.68-6.5,4.39,5.78,8.34,11.88,11.84,18.23,9.78,19.09,15.24,40.93,16.94,62.69,1.05,13.63,.82,27.33-.71,40.92"/>
    <g>
      <path class="cls-4" d="M232.06,1022.61c-8.06,.87-14.55,6.08-14.31,11.53,.19,5.47,7.06,9,15.14,7.94,8.01-1.03,14.29-6.12,14.08-11.44-.23-5.29-6.88-8.92-14.91-8.03m1.35,27.71c-7.6,1.01-13.49,6.03-13.04,11.13,.43,5.11,7.07,8.29,14.67,7.13,7.56-1.13,13.28-6.05,12.84-11.04-.43-4.94-6.92-8.22-14.48-7.22m2.67,27.57c-7.13,1.12-12.46,5.93-11.82,10.67,.65,4.78,7.04,7.6,14.15,6.36,7.07-1.23,12.25-5.94,11.64-10.61-.65-4.61-6.88-7.53-13.98-6.43m6.88,43.17c6.59-1.3,11.26-5.79,10.48-10.1-.78-4.29-6.78-6.87-13.38-5.68-6.66,1.2-11.47,5.77-10.64,10.19,.78,4.39,6.92,6.9,13.54,5.59m5.72,25.9c6.1-1.34,10.29-5.59,9.38-9.54-.92-3.97-6.64-6.21-12.75-4.97-6.17,1.25-10.45,5.58-9.52,9.63,.93,4.05,6.76,6.23,12.89,4.89m6.9,25.64c5.61-1.35,9.33-5.36,8.33-8.98-1.01-3.61-6.43-5.54-12.06-4.29-5.66,1.28-9.47,5.37-8.43,9.06,1.01,3.71,6.52,5.57,12.17,4.22m8.02,25.31c5.12-1.34,8.39-5.07,7.32-8.38-1.08-3.27-6.15-4.92-11.29-3.63-5.16,1.28-8.5,5.09-7.42,8.43,1.11,3.37,6.26,4.95,11.4,3.58m9.16,24.98c4.62-1.32,7.49-4.76,6.36-7.72-1.12-2.94-5.83-4.33-10.46-3.06-4.69,1.28-7.59,4.8-6.46,7.79,1.15,3,5.91,4.32,10.57,2.99m10.28,24.59c4.13-1.27,6.59-4.43,5.46-7.05-1.12-2.61-5.44-3.74-9.61-2.49-4.19,1.23-6.67,4.43-5.52,7.09,1.14,2.66,5.51,3.76,9.68,2.45m11.36,24.19c3.66-1.23,5.74-4.07,4.62-6.36-1.12-2.26-5.02-3.18-8.71-2-3.68,1.2-5.81,4.07-4.67,6.4,1.11,2.33,5.07,3.18,8.76,1.97m12.45,23.72c3.18-1.13,4.9-3.65,3.84-5.63-1.06-1.97-4.55-2.66-7.75-1.55-3.21,1.12-4.97,3.66-3.9,5.65,1.08,2.02,4.61,2.67,7.81,1.53m-108.17-237.86c-7.63,.75-13.64,5.58-13.31,10.71,.31,5.14,6.85,8.53,14.5,7.61,7.58-.9,13.44-5.63,13.12-10.62-.31-4.95-6.71-8.44-14.31-7.7m2.44,27.51c-7.16,.89-12.62,5.52-12.1,10.3,.5,4.78,6.83,7.81,14.01,6.76,7.09-1.03,12.43-5.58,11.92-10.24-.49-4.6-6.7-7.72-13.83-6.83m3.27,27.37c-6.69,.99-11.61,5.46-10.92,9.87,.7,4.43,6.75,7.07,13.42,5.94,6.64-1.13,11.45-5.47,10.77-9.8-.69-4.29-6.62-7-13.27-6.01m4.54,27.15c-6.21,1.1-10.61,5.34-9.78,9.38,.81,4.08,6.59,6.38,12.77,5.18,6.15-1.18,10.48-5.34,9.68-9.31-.81-3.97-6.48-6.35-12.67-5.25m17.78,31.38c-.92-3.61-6.29-5.65-11.98-4.5-5.72,1.17-9.65,5.16-8.71,8.86,.94,3.72,6.38,5.7,12.08,4.45,5.67-1.25,9.53-5.16,8.61-8.81m-1.27,34.12c5.16-1.27,8.57-4.94,7.58-8.24-.99-3.27-6.03-5.01-11.24-3.82-5.21,1.2-8.68,4.97-7.67,8.31,1.01,3.39,6.1,5.04,11.33,3.75m8.44,24.98c4.67-1.27,7.65-4.67,6.6-7.65-1.03-2.94-5.72-4.38-10.43-3.18-4.74,1.22-7.75,4.67-6.69,7.7,1.06,3.03,5.79,4.42,10.52,3.13m9.18,24.71c4.19-1.25,6.76-4.38,5.7-7s-5.37-3.79-9.6-2.61c-4.24,1.22-6.82,4.4-5.75,7.05,1.08,2.69,5.42,3.81,9.65,2.56m9.63,24.5c3.7-1.2,5.88-4.03,4.82-6.35-1.04-2.29-4.94-3.21-8.68-2.05-3.75,1.17-5.94,4.03-4.89,6.38,1.08,2.35,5.01,3.23,8.74,2.02m11.6,23.8c3.21-1.13,5.02-3.65,4.02-5.63s-4.49-2.69-7.74-1.58c-3.25,1.1-5.07,3.66-4.05,5.67,1.03,2.01,4.52,2.69,7.77,1.54m-90.99-168.89c6.66-1.06,11.51-5.39,10.84-9.72-.63-4.29-6.55-7.05-13.23-6.12-6.69,.96-11.68,5.36-11.02,9.77,.65,4.47,6.72,7.17,13.41,6.07m4.84,25.92c6.15-1.15,10.52-5.28,9.73-9.25s-6.43-6.38-12.62-5.34c-6.22,1.04-10.67,5.25-9.89,9.31,.8,4.1,6.55,6.43,12.77,5.27m5.98,25.65c5.66-1.22,9.56-5.11,8.68-8.74-.88-3.63-6.26-5.72-11.94-4.59-5.74,1.13-9.7,5.09-8.79,8.81,.88,3.74,6.34,5.74,12.06,4.52m7.12,25.35c5.18-1.25,8.6-4.9,7.65-8.21-.96-3.27-5.99-5.04-11.19-3.88-5.25,1.18-8.74,4.89-7.77,8.26,.97,3.4,6.08,5.08,11.31,3.83m8.23,25.01c4.69-1.25,7.68-4.64,6.66-7.61-.99-2.94-5.67-4.43-10.39-3.23-4.74,1.2-7.81,4.66-6.78,7.68,1.04,3.03,5.77,4.42,10.51,3.16m8.98,24.73c4.19-1.23,6.76-4.35,5.74-6.98-1.03-2.61-5.32-3.81-9.54-2.62-4.26,1.18-6.88,4.36-5.84,7.04,1.03,2.69,5.38,3.82,9.64,2.57m9.39,24.56c3.7-1.2,5.91-4.02,4.89-6.33-1.03-2.29-4.94-3.25-8.66-2.1-3.77,1.17-5.99,4.05-4.95,6.4s4.97,3.25,8.73,2.04m11.39,23.85c3.21-1.13,5.04-3.65,4.07-5.63-.99-1.98-4.47-2.71-7.7-1.62-3.28,1.12-5.14,3.66-4.13,5.68s4.5,2.71,7.77,1.57m-67.56-76.36c-4.78,1.17-7.89,4.59-6.92,7.61,.99,3.04,5.68,4.47,10.46,3.23,4.73-1.22,7.77-4.59,6.83-7.56-.97-2.93-5.63-4.43-10.37-3.28m103.51-242.34c-8.53,1.01-15.48,6.55-15.4,12.3,.11,5.81,7.2,9.51,15.75,8.33,8.46-1.15,15.23-6.6,15.14-12.22-.08-5.59-6.99-9.4-15.49-8.41m.5,27.62c-8.05,1.13-14.43,6.48-14.06,11.91,.35,5.46,7.23,8.79,15.31,7.52,7.99-1.25,14.18-6.53,13.85-11.82-.33-5.27-7.07-8.73-15.1-7.61m1.84,27.52c-7.58,1.22-13.35,6.36-12.79,11.45,.58,5.11,7.25,8.1,14.81,6.76,7.52-1.34,13.15-6.41,12.62-11.38-.55-4.94-7.08-8.05-14.63-6.83m3.7,27.26c-7.09,1.28-12.32,6.22-11.58,10.95,.75,4.76,7.18,7.44,14.27,6.01,7.04-1.39,12.13-6.24,11.4-10.86-.73-4.6-7.03-7.39-14.09-6.1m4.56,27.15c-6.6,1.35-11.3,6.05-10.41,10.43,.92,4.4,7.07,6.75,13.66,5.3,6.57-1.43,11.14-6.05,10.27-10.34-.91-4.27-6.94-6.73-13.52-5.39m5.85,26.94c-6.14,1.37-10.32,5.81-9.3,9.82,1.03,4.07,6.88,6.1,13,4.64,6.06-1.44,10.15-5.81,9.14-9.77-1.01-3.93-6.76-6.09-12.84-4.7m7.1,26.64c-5.63,1.39-9.33,5.54-8.22,9.23,1.12,3.7,6.64,5.46,12.25,3.98,5.58-1.44,9.2-5.52,8.1-9.14-1.1-3.6-6.54-5.46-12.13-4.07m8.34,26.31c-5.13,1.39-8.39,5.25-7.21,8.57,1.17,3.36,6.35,4.87,11.47,3.41,5.09-1.43,8.27-5.23,7.11-8.52-1.15-3.24-6.26-4.83-11.37-3.46m20.13,28.87c-1.2-2.94-5.93-4.26-10.55-2.9-4.62,1.35-7.45,4.92-6.26,7.89,1.22,3.01,6.01,4.26,10.64,2.85,4.6-1.4,7.37-4.91,6.17-7.84m4.3,32.27c4.12-1.34,6.48-4.54,5.3-7.14-1.2-2.59-5.54-3.7-9.68-2.4-4.15,1.32-6.57,4.57-5.37,7.2,1.22,2.67,5.61,3.7,9.75,2.34m10.97,24.22c3.63-1.27,5.65-4.13,4.47-6.43-1.17-2.27-5.11-3.16-8.76-1.91-3.66,1.25-5.7,4.15-4.54,6.45,1.18,2.37,5.18,3.17,8.83,1.9m-26.7-198.96c-7.07,1.51-12.15,6.6-11.28,11.29,.88,4.73,7.4,7.2,14.45,5.59,6.98-1.6,11.96-6.62,11.09-11.23-.85-4.6-7.23-7.16-14.25-5.66m5.28,27c-6.55,1.53-11.13,6.36-10.1,10.71,1.03,4.38,7.25,6.55,13.8,4.94,6.5-1.62,10.95-6.36,9.94-10.64-1.01-4.28-7.09-6.53-13.64-5.01m6.58,26.75c-6.06,1.55-10.14,6.1-8.99,10.1,1.15,4.02,7.02,5.93,13.09,4.31,6.01-1.6,9.98-6.08,8.84-10.01-1.1-3.94-6.89-5.93-12.94-4.4m-.1,35.92c1.22,3.66,6.78,5.3,12.34,3.72,5.52-1.58,9.04-5.77,7.84-9.35-1.2-3.61-6.69-5.34-12.23-3.81-5.58,1.53-9.16,5.79-7.94,9.44m28.48,19.95c-1.25-3.27-6.38-4.73-11.44-3.23-5.09,1.5-8.22,5.44-6.95,8.74,1.28,3.32,6.48,4.71,11.56,3.16,5.02-1.55,8.09-5.41,6.83-8.68m3.56,33.23c4.54-1.48,7.21-5.06,5.91-7.98-1.27-2.94-6.01-4.15-10.61-2.71-4.6,1.44-7.3,5.07-6.01,8.01,1.29,3.01,6.12,4.17,10.71,2.68"/>
      <path class="cls-4" d="M393.76,1212.59l.52-.94c-9.9,10.46-19.64,21.08-29.2,31.86l-28.58,31.98c-4.83,5.37-9.38,10.55-14.16,15.28-4.73,4.75-9.79,9.16-15.14,13.19-10.53,7.96-22.16,13.73-34.73,16.53-12.5,2.74-25.95,3.06-38.44,.52-19.01-3.77-36.28-14.23-49.88-28.52,2.78-1.39,4.36-3.68,3.53-5.65-.97-2.29-4.87-3.25-8.62-2.1-.45,.12-.8,.36-1.2,.54-2.12-2.64-4.12-5.37-5.99-8.19-1.97-2.94-3.82-5.96-5.54-9.06,1.89,.99,4.62,1.3,7.42,.49,4.24-1.23,6.88-4.33,5.89-6.95-.97-2.62-5.27-3.84-9.51-2.67-3.18,.87-5.44,2.81-6.01,4.87-7.35-14.27-12.25-29.88-14.98-45.95,2.17,1.12,5.12,1.53,8.29,.81,5.23-1.2,8.73-4.82,7.82-8.12-.92-3.28-5.93-5.09-11.18-3.98-2.57,.56-4.73,1.72-6.15,3.16-.36-2.81-.66-5.64-.9-8.46-.21-2.57-.12-5.16-.23-7.75,1.25,.07,2.59,0,3.95-.26,5.72-1.15,9.67-4.99,8.84-8.66-.81-3.6-6.15-5.75-11.89-4.69-.45,.09-.81,.29-1.25,.42,.09-4.49,.5-8.97,.87-13.44,5.01-1.55,8.43-4.97,7.81-8.46-.47-2.52-3.03-4.33-6.35-5.14,1.79-11.1,4.49-22.04,8.06-32.71,1.5-4.5,3.27-8.9,4.99-13.31,2.29,.76,4.92,1.18,7.84,.78,7.11-.96,12.48-5.46,11.99-10.12-.45-4.42-6.15-7.42-12.9-6.95,1.79-3.88,3.58-7.75,5.51-11.59,3.56-2,5.79-4.99,5.61-8.12-.04-.61-.16-1.21-.36-1.79,3.77-6.99,7.73-13.87,11.87-20.65,2.14,.58,4.52,.83,7.11,.59,8.05-.76,14.46-5.63,14.38-10.95-.07-4.07-4.02-7.3-9.51-8.29,4.54-6.76,9.22-13.42,14.03-19.99,2.15,3.81,7.87,6.06,14.56,5.36,8.5-.92,15.35-6.19,15.38-11.82,.02-5.59-6.8-9.61-15.28-8.88-1.22,.11-2.38,.33-3.51,.61,1.79-2.31,3.65-4.59,5.47-6.87,8.12-1.28,14.63-6.29,14.95-11.84,.06-1.64-.44-3.26-1.43-4.57,4.05-4.8,8.17-9.54,12.34-14.27,2,.38,4.2,.49,6.55,.26,7.75-.75,14.48-4.8,16.89-9.68,1.25,1.34,2.97,2.4,5.11,3.08,.42,2.62,.87,5.23,1.3,7.84-4.71,2.4-8.01,6.08-8.44,9.92-1.74-4.35-7.81-7.13-15.26-6.43-8.98,.87-16.58,6.57-16.76,12.67-.19,6.13,7.06,10.19,16.08,9.14,8.6-1.01,15.66-6.24,16.37-11.91,1.46,3.61,5.94,5.91,11.63,6.05,.43,2.09,.8,4.17,1.25,6.26-7.11,2.04-12.39,7.11-12.16,12.16,.24,5.75,7.45,9.18,15.99,7.72,.24-.05,.49-.14,.75-.19,.58,2.31,1.22,4.59,1.82,6.88-.74,.04-1.49,.12-2.22,.23-8.05,1.41-14.27,6.98-13.78,12.38,.51,5.42,7.51,8.52,15.55,6.98,1.87-.36,3.7-.96,5.42-1.77,.99,3.35,2,6.69,3.06,10.03-2.51-.64-5.13-.72-7.68-.23-7.54,1.46-13.19,6.82-12.5,11.85,.71,5.07,7.47,7.84,15.03,6.26,3.9-.81,7.21-2.64,9.44-4.9,1.04,3.06,2.04,6.12,3.13,9.16,8.79,24.46,19.32,48.26,31.51,71.21,6.15,11.16,10.54,23.2,13.02,35.7,2.43,12.48,2.67,25.64-.99,38.05,4.47-12.15,5.09-25.53,3.44-38.44-1.75-12.99-5.48-25.63-11.06-37.49-10.58-23.35-19.45-47.43-26.56-72.06-5.81-20.2-10.53-40.7-14.15-61.41-.61-3.53-1.23-7.05-1.77-10.57-.16-.94-.33-1.86-.47-2.8-.49-3.18-.87-6.35-1.28-9.54-.76-5.63-1.43-11.27-2.02-16.91-.26-2.45-.51-4.91-.73-7.37-.12-1.34-.28-2.69-.4-4.05-.45-5.51-.78-11.09-1.06-16.63-.38-6.97-.52-13.96-.43-20.94l-.16-22.87-16.39,15.62c-13.63,13.08-26.74,26.68-39.29,40.79-5.93,6.63-11.77,13.36-17.5,20.16-.8,.94-1.62,1.86-2.4,2.81-1.27,1.53-2.49,3.11-3.75,4.64-2.56,3.14-5.07,6.26-7.58,9.42l-1.15,1.44c-3.91,4.97-7.74,10.03-11.53,15.12-1.6,2.17-3.21,4.35-4.82,6.55-4.22,5.86-8.36,11.78-12.39,17.8-3.43,5.07-6.77,10.2-10.03,15.38-.49,.8-.92,1.6-1.39,2.38-3.59,5.79-7.05,11.66-10.37,17.61-1.79,3.16-3.43,6.43-5.12,9.65-2.14,4.07-4.22,8.18-6.24,12.32-3.47,7.25-6.69,14.62-9.63,22.09-1.97,4.97-3.97,9.94-5.67,15.03-.11,.31-.18,.63-.28,.94-2.66,8.1-4.88,16.35-6.64,24.69-1.25,5.96-2.33,11.99-3.04,18.09-1.65,14.85-1.91,29.82-.76,44.72,2.36,29.77,10.99,59.79,28.12,85.32,8.57,12.72,19.27,24.19,31.91,33.34,12.62,9.09,27.26,15.78,42.72,18.89,15.55,3.11,31.28,2.74,46.7-.63,15.43-3.37,29.98-10.67,42.22-19.95,12.3-9.11,22.8-20.49,32.13-31.1l1.01-1.81c2.31-5.58,10.84-25.8,19.71-41.63,6.49-11.39,13.8-22.29,21.87-32.62"/>
    </g>
  </g>
</svg>