<?xml version="1.0" encoding="UTF-8"?>
<svg id="third-logo" data-name="third-logo" xmlns="http://www.w3.org/2000/svg" viewBox="0 0 2500 2500">
  <defs>
    <style>
      .cls-1 {
        fill: #fff;
      }

      .cls-2 {
        fill: #47ab48;
      }

      .cls-3 {
        fill: #818385;
      }

      .cls-4 {
        fill: #211e1e;
      }
    </style>
  </defs>
  <rect class="cls-1" x="-53.62" y="-29.59" width="2586.82" height="2553.62"/>
  <g>
    <path class="cls-2" d="M1771.06,1135.79c0,161.16,130.67,291.83,291.85,291.83,39.77,0,77.7-8.02,112.25-22.44-40.72,9.45-63.61-6.01-65.82-11.96-4.4-11.69,29.79-3.73-2.42-20.3-19.45-10.01-27.76-29.87-29.88-38.54l-6.62-3.7c-1.15-.33-1.95-.56-1.79-.4,0,0-139.86-19.69-147.54-52.57-8.2-35.21-53.32-26.77-53.88-54.88-.22-14.02,16.76-8.85,20.84-14.97,5.07-7.72-1.88-10.97-23.11-23.71-56.06-33.68-47.93-86.73-38.83-95,5.93-5.39,12.44-2.38,18.37,.65,5.84,2.97,11.1,5.93,14.7,.91,7.3-10.09-34.09-67.16,53.37-132.03,0,0,10.37,33.44,42.22,44.89,33.84,12.17-21.05,58.01-9.12,88.78,6.74,17.28,20.39-4.4,32.91-16.54,10.75-10.41,25.58-37.01,44.2-31.2,16.38,5.12,10.68,26.6,14.37,38,4.78,14.81,16.61,10.16,23.01,23.11,6.15,12.41,1.8,17.59-16.92,33.74-34.14,29.53-17.86,62.43-8.21,55.95,14.42-9.65,11.72-20.25,35.07-21.57,17.54-.97,23.57,16.3,18.88,28.75-4.74,12.47-7.49,16.44-4.66,25.4,7.24,22.88,3,15.9-8.91,36.71-10.17,17.78-9.79,34.49,2.1,62.92,24.01,12.2,33.01,4.64,42.94-2.93,7.88-6,16.31-11.99,33.29-8.15,85.88,19.58,39.21-8.39,53.82-22.64,7.52-7.35,13.27-6.82,20.11-6.33,5.21,.42,11.08,.78,18.83-2.31,26.5-16.61,29.04-22.24,63.96,5.09,28.03-44.84,44.31-97.79,44.31-154.54,0-49.4-12.29-95.93-33.98-136.7-12.15-11.34-22.2-18.37-19.28-.16,1.63,10.05,45.98,92.69-20.57,156.57,0,0-.03-.69-.13-1.76-.72-7.57-5.28-37.22-31.3-41.11-31.68-4.77-5.37-53.19-20.78-75.79-21.73-31.83-27.36,11.86-34.95,21.43-7.83,9.78-40.04,27.98-40.04,2.87,0-28.57-20.06-32.14-27.76-41.44-7.41-8.91-4.37-13.67,9.45-29.13,25.34-28.26,7.13-46.03-.3-39.51-11.1,9.7-8.47,11.82-28.76,16.17-15.24,3.33-14.53-22.71-12.69-33.32,10.52-60.37-29.66-83.35-87.19-84.49-134.19,26.33-235.42,144.51-235.42,286.38"/>
    <path class="cls-2" d="M2086.84,1339.63s-191.82-74.46-198.5-263.24c0,0,18.54,143.51,198.5,263.24m-1.42-495.23c5.47,.61,46.78,6.11,90.41,33.95,16.22,15.2,39.19,52.46,3.75,128.85,0,0,45.41-61.29,33.93-98.51,38.09,38.22,70.11,98.8,71.32,194.79,0,0,42.33-240.5-199.41-259.08m191.73,477.04c-14.64,8.88-38.37,29.82-77.17,17.55,0,0,15.18,11.71,39.61,11.05-31.16,16.1-64.91,19.95-118.36,6.57,0,0,108.2,63.83,183.8-58.33,0,0-18.77,17.62-27.88,23.16"/>
    <path class="cls-4" d="M238.02,1064.65c0,21,3.97,26.82,18.88,26.82v5.18h-61.8v-5.18c12.5,0,19.8-3.68,19.8-27.75v-133.14h-25.27c-23.42,0-34.09,6.66-35.62,24.97h-5.15v-39.93h5.15c2.46,2.14,5.2,3.65,9.47,4.88,3.95,.96,9.41,1.51,16.73,1.51h91.29c15.23,0,22.23-1.83,27.7-6.4h5.47v39.93h-3.33c-3.36-14.62-9.12-24.97-36.83-24.97h-26.47v134.07h0Zm188.12,6.08c0,16.46,3.06,20.74,17.33,20.74v5.18h-55.99v-5.18c14.65,0,17.97-3.4,17.97-17.4v-53.3c0-14.34-8.53-23.47-21.61-23.47-12.17,0-21,5.77-31.35,20.44v59.11c0,11.23,4.56,14.62,17.92,14.62v5.18h-57.79v-5.18c16.1-.32,19.2-3.4,19.2-20.74v-140.46c0-14.03-3.99-16.15-19.2-16.15v-5.17l34.68-3.68h5.18v102.1c13.7-15.87,23.76-21.62,37.71-21.62,18,0,35.92,11.86,35.92,37.45v47.53h0Zm109.09-45.1c.94-23.77-15.21-33.52-28.89-33.52-17.95,0-28.62,13.41-29.85,33.52h58.74Zm-58.74,5.18c-.57,48.46,28.3,60.62,42.94,60.62s22.48-5.15,38.03-22.53v7.94c-13.06,16.74-25.58,23.12-44.42,23.12-33.79,0-58.15-23.44-58.15-56.06s23.74-58.17,54.17-58.17c24.97,0,48.09,20.09,46.59,45.08h-79.15Zm359.01,131.33h-8.19l-194.9-240.55h-.96v194.16c0,28.02,11.12,38.16,36.2,38.16v8.23h-83.93v-8.23c23.14,0,34.24-7.24,34.24-47.32v-161.81c0-30.92-8.19-48.3-41-51.22v-8.18h70.89l172.69,215.4h.97v-161.8c0-36.24-9.65-45.43-33.76-45.43v-8.18h83.46v8.18c-27,0-35.7,11.13-35.7,43.48v225.1Zm255.02-171.48h59.31v12.55h-59.31v110.13c0,23.68,12.05,35.73,30.89,35.73,12.53,0,21.72-4.81,31.83-16.41l5.31,6.28c-14.97,18.81-32.31,28.48-51.6,28.48-28.96,0-49.22-20.27-49.22-49.73v-114.49h-32.31v-8.18c23.14-11.61,42.43-32.39,56.91-61.84h8.19v57.47h0Zm253.81,139.11c0,18.81,6.27,24.14,29.42,24.14v8.23l-62.22,3.36v-31.4h-.96c-16.9,22.21-36.67,33.33-59.86,33.33-33.76,0-55.92-25.59-55.92-57.45v-87.44c0-16.42-5.79-22.71-30.41-22.71v-8.19l55-5.34h8.21v122.22c0,24.16,15.43,38.65,38.59,38.65,16.39,0,31.35-9.18,45.35-28.03v-92.24c0-23.68-3.88-26.56-33.28-27.06v-8.19l57.86-5.34h8.21v143.47h0Zm105.99,0c0,18.81,5.77,24.14,28.45,24.14v8.23h-90.2v-8.23c26.05,0,28.96-6.74,28.96-32.85v-93.21c0-25.1-6.3-28.01-35.22-28.01v-8.19l59.81-5.34h8.21v37.22c31.83-27.54,46.78-37.22,58.36-37.22,9.66,0,22.69,5.82,31.38,13.54l-13.04,30.44c-13.98-7.73-28.96-14.99-40.5-14.99s-20.76,5.81-36.2,20.78v93.7h0Zm219.73-80.18c1.45-37.68-24.11-53.13-45.83-53.13-28.46,0-45.36,21.26-47.26,53.13h93.09Zm-93.09,8.21c-.97,76.81,44.86,96.1,68.01,96.1s35.69-8.19,60.29-35.73v12.58c-20.73,26.55-40.53,36.69-70.43,36.69-53.54,0-92.13-37.18-92.13-88.88s37.62-92.26,85.86-92.26c39.55,0,76.2,31.87,73.81,71.5h-125.41Zm-1256.18,172.19c-10.09-39.05-31.41-56.05-67.16-56.05-49.84,0-76.58,40.15-76.58,93.31,0,62.2,32.16,103.04,78.74,103.04,32.5,0,56.7-15.18,72.25-45.56l5.39,5.07c-13.7,32.9-46.56,53.51-86.28,53.51-49.85,0-101.88-34.01-101.88-103.05s45.16-114.28,106.93-114.28c25.99,0,45.51,8.69,57.77,8.69,5.4,0,9.03-2.18,11.18-6.52h5.81v61.84h-6.16Zm95.6,23.88c-27.08,0-43.34,23.85-43.34,60.72,0,32.93,13.73,60.42,43.34,60.42s43.34-29.29,43.34-60.42c0-32.16-13.71-60.72-43.34-60.72m0,128.37c-40.09,0-70.05-28.94-70.05-67.66s29.96-67.96,70.05-67.96,70.05,28.94,70.05,67.96-29.96,67.66-70.05,67.66m218.42-31.82c0,16.6,3.6,21.67,21.65,21.67v6.17h-68.21v-6.17c17.3,0,22-3.95,22-15.88v-66.91c0-20.59-14.81-29.28-28.51-29.28-12.66,0-23.84,7.92-36.5,24.92v62.57c0,19.5,2.52,24.57,21.67,24.57v6.17h-67.53v-6.17c16.97,0,21.3-1.43,21.3-24.57v-71.94c0-15.55-3.99-18.8-21.3-18.8v-6.15l39.7-4h6.15v25.66c15.18-17.33,29.96-25.66,46.23-25.66,21.3,0,43.34,15.21,43.34,45.94v57.87Zm105.7-64.38c-2.52-21.32-16.6-32.16-31.78-32.16-12.64,0-21.32,6.86-21.32,17.35,0,32.54,67.18,23.85,67.18,71.59,0,21.33-18.4,39.4-40.44,39.4-14.08,0-26.36-9.41-32.51-9.41-4.67,0-7.94,4-8.31,8.67h-6.12v-43.74h6.12c5.44,26.76,25.29,37.26,41.17,37.26,12.66,0,22.4-9.42,22.4-22.08,0-35.77-67.89-26.04-67.89-69.41,0-19.92,17.7-36.88,38.99-36.88,13.38,0,17.36,6.14,26.02,6.14,3.24,0,5.77-1.8,7.57-6.14h6.14v39.4h-7.22Zm123.05,7.95c1.07-28.21-18.07-39.74-34.32-39.74-21.32,0-33.93,15.88-35.4,39.74h69.71Zm-69.71,6.17c-.72,57.47,33.58,71.96,50.93,71.96s26.74-6.15,45.13-26.75v9.38c-15.51,19.88-30.33,27.5-52.71,27.5-40.09,0-68.98-27.84-68.98-66.55s28.16-69.06,64.28-69.06c29.61,0,57.08,23.89,55.27,53.53h-93.9Zm157.54,53.88c0,14.09,4.32,18.07,21.3,18.07v6.15h-67.53v-6.15c19.47,0,21.66-5.07,21.66-24.57v-69.81c0-18.8-4.7-20.97-26.36-20.97v-6.14l44.77-3.99h6.15v27.84c23.84-20.63,35.03-27.84,43.69-27.84,7.22,0,16.98,4.34,23.49,10.12l-9.78,22.75c-10.48-5.76-21.67-11.19-30.33-11.19s-15.53,4.35-27.08,15.55v70.17Zm152.39-6.9l24.92-64.72c6.15-16.63,6.15-24.2-12.64-25.66v-6.15h46.96v6.15c-14.8,1.45-18.42,4.69-24.57,18.42l-41.17,105.97h-6.11l-40.84-100.53c-8.67-20.94-11.93-23.14-27.09-23.85v-6.15h61.77v6.15c-12.29,1.09-15.53,7.96-9.76,22.05l28.53,68.32Zm314.14,3.28c0,16.6,3.63,21.67,21.65,21.67v6.17h-68.21v-6.17c17.33,0,22-3.95,22-15.88v-66.91c0-20.59-14.81-29.28-28.54-29.28-12.63,0-23.79,7.92-36.47,24.92v62.57c0,19.5,2.54,24.57,21.7,24.57v6.17h-67.56v-6.17c16.98,0,21.3-1.43,21.3-24.57v-71.94c0-15.55-3.99-18.8-21.3-18.8v-6.15l39.74-4h6.12v25.66c15.18-17.33,29.99-25.66,46.21-25.66,21.33,0,43.35,15.21,43.35,45.94v57.87Zm142.13-58.6h-6.15c-5.45-23.1-21.67-37.96-42.99-37.96-25.27,0-42.96,21.72-42.96,53.13,0,35.1,22,64.4,48.03,64.4,15.53,0,34.31-8.31,47.66-26.77v9.42c-13.73,18.78-33.21,28.19-56.32,28.19-37.95,0-64.31-26.39-64.31-64.75s29.64-70.86,66.09-70.86c19.15,0,29.61,7.24,36.11,7.24,3.22,0,6.51-2.54,8.67-7.24h6.15v45.2Zm91.72,56.77l22.42-67.61c5.02-15.2,3.96-23.5-10.11-24.22v-6.14h45.13v6.14c-13.75,0-22.02,8.69-29.26,30.01l-50.93,150.79c-10.11,29.63-26.72,46.62-42.26,46.62-5.4,0-9.36-1.44-15.88-5.39l8.32-22.07c5.04,2.17,7.91,2.88,12.26,2.88,15.5,0,24.57-9.04,32.5-31.46l16.65-46.31-45.87-105.93c-6.51-14.84-11.21-18.8-26.01-19.17v-6.14h61.39v6.14c-9.76,1.45-13.73,8.69-9.03,19.52l30.68,72.32Zm-689.05-221.25c-6.73,14.51-25.08,21.75-35.19,21.75-14,0-26.07-14-26.07-31.4,0-34.79,28.94-34.28,61.26-48.3v57.95Zm32.75-2.47l.06-75.76c0-46.4-33.28-62.81-61.76-62.81-30.85,0-55.95,20.78-63.17,52.65l8.69,2.44c7.24-24.65,26.04-36.74,45.33-36.74,24.09,0,38.09,17.41,38.09,41.55v12.55c-27.95,16.42-94.54,14.48-94.54,63.29,0,25.11,22.18,45.38,48.71,45.38,17.87,0,30.98-7.08,47.85-25.4l.13-.06v20.57h59.91v-8.32c-24.41,0-29.31-6.85-29.31-29.34m229.86,227.2c-5.01,10.75-18.61,16.12-26.1,16.12-10.38,0-19.32-10.4-19.32-23.28,0-25.78,21.46-25.42,45.43-35.8v42.96Zm24.27-1.85l.05-56.16c0-34.38-24.67-46.56-45.78-46.56-22.9,0-41.47,15.42-46.85,39.05l6.46,1.79c5.36-18.27,19.28-27.2,33.58-27.2,17.89,0,28.27,12.91,28.27,30.79v9.31c-20.73,12.18-70.1,10.73-70.1,46.9,0,18.62,16.44,33.65,36.12,33.65,13.25,0,22.96-5.23,35.48-18.85l.08-.03v15.24h44.41v-6.19c-18.08,0-21.72-5.07-21.72-21.73"/>
    <path class="cls-3" d="M1308.98,1533.5h23.2v120.37h-23.2v-120.37Zm99.44,55.64c-5.25-2.44-9.25-3.67-16.41-3.67-10.99,0-19.01,8.9-19.01,27.39,0,16.41,6.97,24.08,16.22,24.08,7.69,0,13.62-4.55,19.2-11.51v-36.29Zm2.97,64.72l-1.76-11.69c-5.93,7.14-14.13,13.42-25.82,13.42-17.62,0-31.75-13.08-31.75-41.51,0-31.41,17.27-45.36,36.82-45.36,8.02,0,14.46,1.4,19.53,3.14v-40.64l20.94-3.32v125.95h-17.97Zm85.32-42.05c-24.25,2.97-30.01,10.12-30.01,18.14,0,6.11,3.84,9.78,10.3,9.78,7.14,0,13.95-3.32,19.71-9.07v-18.85Zm2.97,42.05l-1.74-10.99c-6.81,7.14-15.53,12.72-28.09,12.72-14.3,0-23.9-8.72-23.9-23.36,0-20.43,16.76-29.32,50.77-32.62v-2.46c0-9.07-5.23-12.55-14.48-12.55-9.77,0-19.02,2.79-28.08,6.79l-2.63-16.74c9.77-3.84,20.07-6.81,33.5-6.81,21.8,0,32.62,8.04,32.62,28.27v57.74h-17.97Zm89.69,0v-55.12c0-7.34-3.14-12.39-10.81-12.39-6.63,0-13.09,4.18-19.2,10.64v56.88h-20.94v-122.64l20.94-3.32v52.33c6.98-6.46,15.71-12.39,26.87-12.39,15.71,0,24.08,9.6,24.08,25.3v60.7h-20.94Zm76.96-68.91c-12.39,0-19.02,11.16-19.02,26.87s6.81,26.69,19.02,26.69c12.9,0,19.53-10.99,19.53-26.69,0-15.51-6.97-26.87-19.53-26.87m0,70.65c-22.85,0-39.43-16.39-39.43-43.79s16.76-43.96,39.61-43.96,39.77,16.57,39.77,43.96c0,27.4-16.92,43.79-39.94,43.79"/>
  </g>
</svg>