<?xml version="1.0" encoding="UTF-8"?>
<svg id="fouth-logo" data-name="forth-logo" xmlns="http://www.w3.org/2000/svg" viewBox="0 0 2500 2500">
  <defs>
    <style>
      .cls-1 {
        fill: #fff;
      }

      .cls-2, .cls-3 {
        fill: #7a97aa;
      }

      .cls-3 {
        fill-rule: evenodd;
      }
    </style>
  </defs>
  <rect class="cls-1" x="-28.05" y="-54" width="2612.45" height="2612.45"/>
  <g>
    <path class="cls-3" d="M271.59,1140.64c93.6-90.81,162.23-262.65,314.94-261.37,35.24,.27,62.11,65.86,75.42,89.28,18.57,32.67,40.35,61.33,55.61,96.22,21.92,49.97,48.7,93.99,91.03,128.82,16.24,13.33,13.68-.4,2.79-10.06-38-33.77-56.57-80.63-77.6-125.65-14.86-31.78-37.34-58.78-54.23-89.41-18.49-33.45-47.4-99.95-90.32-111.25-158.24-41.76-260.11,164.5-339.11,263.47-3.55,4.5,17.42,23.89,21.45,19.96h0Z"/>
    <path class="cls-3" d="M2126.63,818.98s-633.92-8.91-703.35,69.15c0,0-45.26,49.09,256.61,69.17,177.48,11.79,597.72,2.2,597.72,69.17,0,118.21-1887.01,177.95-2154.16,448.24-44.98,45.54,20.88,120.94,267.16,64.63,258.6-59.09,242.6-61.19,569.41,32.76,129.35,37.13,314.26-25.91,357.55-38.26,43.27-12.32,117.66-15.91,208.31,10.04,147.91,42.36,202.17-90.72,104.13-97.05-1294.97-83.56,398.08-241.3,717.06-373.53,28.27-11.71,41.49-23.8,42.63-35.76v-3.72c-6.61-57.55-288.9-111.89-534.37-114.7-289.82-3.36-496.35-19.51-153.69-60.76,330.64-39.82,424.98-39.36,424.98-39.36h0Z"/>
    <path class="cls-3" d="M760.41,1013.76c38.96-38.31,69.03-83.77,101.49-127.51,38.82-52.32,85.34-94.3,132.42-138.72,39.45-37.22,93.42-57.83,147.08-60.04,42.31-1.72,62.5,41.98,83.77,73.29,34.97,51.57,70.53,106.33,95.91,163.37,24.37,54.68,63.68,117.32,109.69,156.29,16.13,13.63,13.35-.27,2.81-10.09-51.53-47.87-79.54-121.75-113.59-182.28-36.91-65.65-76.78-132.36-126.86-188.94-21.89-24.71-47.77-35.94-75.04-37.95h-18.65c-34.06,2.35-69.39,17.06-101.32,36.19-115.03,68.92-176.78,196.49-259.14,296.42-3.67,4.41,17.41,23.92,21.43,19.97Z"/>
    <path class="cls-2" d="M152.9,1835.3l-40.08-150.98h20.49l22.98,98.95c2.45,10.38,4.57,20.67,6.36,30.91,3.88-16.13,6.12-25.42,6.82-27.91l28.72-101.93h24.11l21.62,76.42c5.41,18.95,9.31,36.77,11.74,53.44,1.89-9.52,4.44-20.49,7.52-32.83l23.66-97.01h20.1l-41.4,150.98h-19.26l-31.81-115.02c-1.68-5.88-3.26-11.79-4.75-17.72-1.58,6.93-3.06,12.84-4.44,17.72l-32.02,115.02h-20.36v-.03Zm225.41-13.5c-6.89,5.84-13.5,9.95-19.82,12.37-6.55,2.42-13.48,3.63-20.47,3.58-12.02,0-21.23-2.93-27.7-8.79-6.43-5.88-9.66-13.38-9.66-22.49,0-5.38,1.19-10.26,3.66-14.69,2.43-4.44,5.63-7.98,9.56-10.65,4.1-2.74,8.61-4.79,13.36-6.08,3.62-.95,9.1-1.89,16.45-2.78,14.98-1.8,26.02-3.92,33.07-6.39,.08-2.53,.12-4.15,.12-4.82,0-7.56-1.76-12.89-5.28-15.95-4.71-4.22-11.78-6.28-21.09-6.28-8.72,0-15.15,1.5-19.32,4.57-4.15,3.06-7.21,8.47-9.21,16.24l-18.11-2.49c1.65-7.73,4.34-14.02,8.12-18.75,3.76-4.79,9.23-8.47,16.38-11.05,7.13-2.57,15.4-3.87,24.82-3.87s16.9,1.13,22.74,3.31c5.84,2.2,10.12,4.95,12.89,8.29,2.75,3.35,4.64,7.52,5.77,12.63,.6,3.16,.91,8.86,.91,17.08v24.71c0,17.25,.39,28.16,1.21,32.7,.78,4.57,2.35,8.96,4.67,13.15h-19.38c-2.02-4.25-3.27-8.83-3.68-13.53h0Zm-1.56-41.41c-6.74,2.78-16.83,5.1-30.26,7.03-7.63,1.09-13.03,2.32-16.17,3.68-3,1.22-5.54,3.33-7.3,6.04-1.72,2.61-2.63,5.67-2.61,8.79,0,4.97,1.91,9.07,5.63,12.37,3.74,3.28,9.21,4.93,16.42,4.93s13.5-1.54,19.05-4.68c5.55-3.11,9.66-7.41,12.27-12.81,2-4.19,2.98-10.38,2.98-18.53v-6.82h-.01Zm87.96,38.33l2.67,16.38c-4.59,1.03-9.28,1.58-13.98,1.66-6.76,0-11.96-1.06-15.68-3.2-3.45-1.86-6.2-4.81-7.81-8.39-1.52-3.45-2.3-10.76-2.3-21.88v-62.92h-13.59v-14.41h13.59v-27.11l18.46-11.1v38.21h18.64v14.41h-18.64v63.94c0,5.3,.31,8.69,.96,10.19,.67,1.51,1.79,2.77,3.2,3.61,1.47,.88,3.58,1.35,6.33,1.35,2.06-.01,4.76-.26,8.14-.74h0Zm92.97-18.64l19.16,2.36c-3.01,11.21-8.61,19.9-16.77,26.08-8.18,6.16-18.62,9.25-31.31,9.25-15.99,0-28.69-4.93-38.04-14.77-9.39-9.84-14.06-23.66-14.06-41.44s4.75-32.7,14.2-42.85c9.48-10.16,21.76-15.25,36.87-15.25s26.58,4.99,35.82,14.93c9.27,9.96,13.92,23.98,13.92,42.01,0,1.12-.04,2.78-.1,4.95h-81.55c.67,12.02,4.09,21.23,10.21,27.6,6.11,6.39,13.71,9.58,22.84,9.58,6.78,0,12.59-1.79,17.41-5.37,4.81-3.55,8.61-9.23,11.41-17.08Zm-60.84-29.99h61.06c-.8-9.18-3.16-16.11-6.99-20.67-5.9-7.15-13.57-10.73-22.96-10.73-8.51,0-15.68,2.85-21.48,8.55-5.81,5.69-9,13.32-9.64,22.85Zm103.1,65.21v-109.36h16.67v16.55c4.25-7.74,8.18-12.85,11.82-15.33,3.59-2.46,7.56-3.72,11.89-3.72,6.25,0,12.58,2,19.05,5.97l-6.39,17.24c-4.06-2.57-8.76-3.97-13.57-4.05-4.07,0-7.69,1.25-10.93,3.66-3.24,2.45-5.51,5.82-6.89,10.16-2.14,7-3.19,14.3-3.1,21.62v57.26h-18.55s0,.01,0,.01Zm215.34-17.83c-6.12,6.82-12.79,11.93-20,15.3-7.32,3.43-15.31,5.17-23.38,5.1-15.42,0-27.69-5.2-36.77-15.64-7.34-8.5-11-18.03-11-28.53,0-9.33,2.98-17.76,9-25.28,6.01-7.51,14.98-14.12,26.93-19.82-6.78-7.81-11.32-14.16-13.57-19.05-2.17-4.39-3.33-9.2-3.41-14.1,0-9.07,3.55-16.95,10.65-23.66,7.09-6.68,16.07-10.01,26.82-10.01s18.73,3.16,25.3,9.46c6.54,6.33,9.81,13.92,9.81,22.77,0,14.33-9.49,26.61-28.51,36.77l27.07,34.49c3.31-6.65,5.73-13.71,7.2-20.99l19.26,4.1c-3.31,13.19-7.73,24.02-13.38,32.53,6.63,8.89,14.58,16.71,23.58,23.19l-12.44,14.73c-7.47-4.84-15.21-11.95-23.15-21.36h0Zm-37.72-78.66c8.05-4.75,13.26-8.9,15.6-12.49,2.4-3.54,3.55-7.48,3.55-11.84,0-5.14-1.62-9.35-4.88-12.58-3.21-3.26-7.62-5.04-12.19-4.93-4.66-.14-9.17,1.61-12.52,4.85-3.33,3.24-4.99,7.17-4.99,11.85,0,2.31,.6,4.77,1.79,7.37,1.19,2.57,3.02,5.27,5.41,8.16l8.22,9.61h0Zm26.08,64.04l-33.99-42.11c-10.01,5.98-16.8,11.54-20.28,16.63-3.51,5.14-5.27,10.19-5.27,15.19,0,6.12,2.45,12.48,7.31,19.05,4.88,6.61,11.78,9.88,20.7,9.88,5.55,0,11.31-1.72,17.26-5.2,5.75-3.29,10.63-7.9,14.27-13.44h0Zm126.75,32.45v-150.98h20.49l79.3,118.53v-118.53h19.16v150.98h-20.49l-79.3-118.65v118.65h-19.16Zm221.51-13.5c-6.89,5.84-13.5,9.95-19.82,12.37-6.55,2.42-13.48,3.63-20.47,3.58-12.02,0-21.23-2.93-27.7-8.79-6.43-5.88-9.66-13.38-9.66-22.49,0-5.38,1.19-10.26,3.66-14.69,2.43-4.44,5.63-7.98,9.56-10.65,4.09-2.74,8.61-4.79,13.36-6.08,3.62-.95,9.1-1.89,16.46-2.78,14.97-1.8,26-3.92,33.07-6.39,.06-2.53,.1-4.15,.1-4.82,0-7.56-1.76-12.89-5.28-15.95-4.71-4.22-11.78-6.28-21.09-6.28-8.72,0-15.15,1.5-19.32,4.57-4.15,3.06-7.21,8.47-9.21,16.24l-18.11-2.49c1.65-7.73,4.34-14.02,8.12-18.75,3.76-4.79,9.25-8.47,16.38-11.05s15.4-3.87,24.82-3.87,16.9,1.13,22.74,3.31c5.84,2.2,10.12,4.95,12.89,8.29,2.75,3.35,4.64,7.52,5.77,12.63,.6,3.16,.91,8.86,.91,17.08v24.71c0,17.25,.39,28.16,1.19,32.7,.78,4.57,2.36,8.96,4.67,13.15h-19.36c-2.01-4.26-3.26-8.84-3.68-13.53h0Zm-1.54-41.41c-6.76,2.78-16.83,5.1-30.26,7.03-7.63,1.09-13.05,2.32-16.17,3.68-3,1.22-5.54,3.33-7.3,6.04-1.72,2.61-2.63,5.67-2.61,8.79,0,4.97,1.89,9.07,5.63,12.37,3.72,3.28,9.21,4.93,16.42,4.93s13.5-1.54,19.05-4.68c5.56-3.11,9.66-7.41,12.27-12.81,2-4.19,2.98-10.38,2.98-18.53v-6.82h-.01Zm87.96,38.33l2.67,16.38c-4.59,1.03-9.28,1.58-13.98,1.66-6.76,0-11.96-1.06-15.68-3.2-3.45-1.86-6.2-4.81-7.81-8.39-1.52-3.45-2.3-10.76-2.3-21.88v-62.92h-13.61v-14.41h13.59v-27.11l18.46-11.1v38.21h18.64v14.41h-18.64v63.94c0,5.3,.31,8.69,.96,10.19,.67,1.51,1.79,2.77,3.2,3.61,1.47,.88,3.58,1.35,6.33,1.35,2.06-.01,4.77-.26,8.16-.74h0Zm89.79,16.59v-16.07c-8.53,12.37-20.09,18.53-34.73,18.53-6.43,0-12.46-1.23-18.07-3.7-5.6-2.45-9.73-5.59-12.44-9.31-2.88-4.12-4.83-8.81-5.73-13.75-.74-3.64-1.13-9.43-1.13-17.33v-67.74h18.53v60.63c0,9.7,.38,16.21,1.12,19.58,1.19,4.88,3.64,8.69,7.42,11.5,3.8,2.78,8.46,4.14,14.01,4.14s10.76-1.4,15.65-4.25,8.34-6.76,10.34-11.62c2.02-4.93,3.03-12.06,3.03-21.37v-58.6h18.55v109.36h-16.55s0-.01,0-.01Zm45.42,0v-109.36h16.67v16.55c4.25-7.74,8.18-12.85,11.8-15.33,3.48-2.43,7.63-3.74,11.88-3.72,6.25,0,12.59,2,19.05,5.97l-6.38,17.24c-4.07-2.57-8.77-3.97-13.58-4.05-4.07,0-7.7,1.25-10.92,3.66-3.24,2.45-5.53,5.82-6.89,10.16-2.14,7-3.19,14.3-3.11,21.62v57.26h-18.52s0,.01,0,.01Zm145.27-35.23l19.16,2.36c-3.01,11.21-8.61,19.9-16.74,26.08-8.21,6.16-18.65,9.25-31.33,9.25-15.98,0-28.68-4.93-38.03-14.77-9.4-9.84-14.06-23.66-14.06-41.44s4.73-32.7,14.19-42.85c9.49-10.16,21.76-15.25,36.89-15.25s26.58,4.99,35.82,14.93c9.27,9.96,13.9,23.98,13.9,42.01,0,1.12-.03,2.78-.1,4.95h-81.54c.66,12.02,4.07,21.23,10.21,27.6,6.11,6.39,13.71,9.58,22.83,9.58,6.78,0,12.59-1.79,17.41-5.37,4.81-3.55,8.61-9.23,11.41-17.08Zm-60.84-29.99h61.05c-.79-9.18-3.14-16.11-6.99-20.67-5.9-7.15-13.55-10.73-22.96-10.73-8.48,0-15.68,2.85-21.48,8.55-5.77,5.69-8.99,13.32-9.62,22.85h0Zm167.67,65.21v-150.98h19.96v150.98h-19.96Zm52.84,0v-109.36h16.67v15.52c8.03-12.02,19.64-18.03,34.78-18.03,6.61,0,12.67,1.19,18.18,3.54,5.55,2.4,9.65,5.49,12.41,9.36,2.76,3.83,4.66,8.38,5.8,13.67,.66,3.45,1.01,9.46,1.01,18.03v67.26h-18.57v-66.55c0-7.52-.69-13.18-2.13-16.95-1.48-3.76-4.18-6.9-7.68-8.92-3.92-2.31-8.4-3.48-12.94-3.37-7.9,0-14.69,2.53-20.44,7.52-5.72,5.03-8.59,14.51-8.59,28.53v59.73h-18.51Zm117.36-129.63v-21.34h18.57v21.34h-18.57Zm0,129.65v-109.36h18.57v109.36h-18.57Zm87.23-16.59l2.68,16.38c-5.19,1.09-9.88,1.66-13.98,1.66-6.76,0-11.96-1.06-15.68-3.2-3.46-1.86-6.2-4.81-7.81-8.39-1.52-3.45-2.31-10.76-2.31-21.88v-62.92h-13.58v-14.41h13.58v-27.11l18.47-11.1v38.21h18.62v14.41h-18.62v63.94c0,5.3,.3,8.69,.96,10.19s1.7,2.7,3.19,3.61c1.47,.88,3.57,1.35,6.33,1.35,2.08-.01,4.79-.26,8.15-.74h0Zm18.22-113.06v-21.34h18.57v21.34h-18.57Zm0,129.65v-109.36h18.57v109.36h-18.57Zm118.14-13.5c-6.89,5.84-13.5,9.95-19.83,12.37-6.54,2.42-13.47,3.63-20.44,3.58-12.04,0-21.23-2.93-27.72-8.79-6.43-5.88-9.65-13.38-9.65-22.49,0-5.38,1.19-10.26,3.64-14.69,2.29-4.26,5.56-7.91,9.55-10.65,4.1-2.74,8.61-4.79,13.37-6.08,3.62-.95,9.09-1.89,16.45-2.78,14.97-1.8,26.02-3.92,33.09-6.39,.08-2.53,.1-4.15,.1-4.82,0-7.56-1.75-12.89-5.27-15.95-4.71-4.22-11.78-6.28-21.1-6.28-8.72,0-15.15,1.5-19.33,4.57-4.15,3.06-7.2,8.47-9.2,16.24l-18.11-2.49c1.65-7.73,4.36-14.02,8.13-18.75,3.75-4.79,9.25-8.47,16.37-11.05,7.15-2.57,15.41-3.87,24.82-3.87s16.9,1.13,22.75,3.31c5.82,2.2,10.1,4.95,12.89,8.29,2.74,3.35,4.63,7.52,5.75,12.63,.61,3.16,.91,8.86,.91,17.08v24.71c0,17.25,.4,28.16,1.22,32.7,.77,4.57,2.36,8.96,4.66,13.15h-19.35c-2.03-4.25-3.29-8.83-3.71-13.53h0Zm-1.54-41.41c-6.76,2.78-16.85,5.1-30.27,7.03-7.63,1.09-13.05,2.32-16.16,3.68-6.03,2.45-9.95,8.33-9.9,14.84,0,4.97,1.89,9.07,5.63,12.37,3.72,3.28,9.2,4.93,16.42,4.93s13.5-1.54,19.05-4.68c5.55-3.11,9.65-7.41,12.26-12.81,2-4.19,2.98-10.38,2.98-18.53v-6.82h-.01Zm87.95,38.33l2.66,16.38c-5.19,1.09-9.88,1.66-13.98,1.66-6.74,0-11.96-1.06-15.68-3.2-3.45-1.87-6.19-4.82-7.81-8.39-1.52-3.45-2.28-10.76-2.28-21.88v-62.92h-13.61v-14.41h13.61v-27.11l18.44-11.1v38.21h18.65v14.41h-18.65v63.94c0,5.3,.32,8.69,.96,10.19,.66,1.5,1.78,2.76,3.19,3.61,1.47,.88,3.59,1.35,6.33,1.35,2.09-.01,4.8-.26,8.17-.74h0Zm18.21-113.06v-21.34h18.55v21.34h-18.55Zm0,129.65v-109.36h18.55v109.36h-18.55Zm77.14,0l-41.62-109.36h19.58l23.49,65.48c2.53,7.07,4.86,14.41,7.02,22.04,1.65-5.76,3.93-12.7,6.86-20.8l24.34-66.72h19.05l-41.41,109.36h-17.31Zm149.93-35.23l19.16,2.36c-3.01,11.21-8.61,19.9-16.77,26.08-8.18,6.16-18.62,9.25-31.31,9.25-16,0-28.7-4.93-38.05-14.77-9.38-9.84-14.06-23.66-14.06-41.44s4.76-32.7,14.21-42.85c9.47-10.16,21.76-15.25,36.86-15.25s26.6,4.99,35.82,14.93c9.3,9.96,13.93,23.98,13.93,42.01,0,1.12-.05,2.78-.1,4.95h-81.57c.69,12.02,4.1,21.23,10.21,27.6,6.11,6.39,13.71,9.58,22.85,9.58,6.78,0,12.59-1.79,17.41-5.37,4.81-3.55,8.6-9.23,11.41-17.08h0Zm-60.84-29.99h61.05c-.8-9.18-3.16-16.11-6.99-20.67-5.9-7.15-13.58-10.73-22.96-10.73-8.51,0-15.68,2.85-21.48,8.55s-8.99,13.32-9.62,22.85h0Z"/>
  </g>
</svg>