<?xml version="1.0" encoding="UTF-8"?>
<svg id="six-logo" data-name="six-logo" xmlns="http://www.w3.org/2000/svg" viewBox="0 0 2500 2500">
  <defs>
    <style>
      .cls-1, .cls-2 {
        fill: #fff;
      }

      .cls-2, .cls-3, .cls-4 {
        fill-rule: evenodd;
      }

      .cls-3 {
        fill: #6097d1;
      }

      .cls-5 {
        fill: none;
        stroke: #6097d1;
        stroke-miterlimit: 33.89;
        stroke-width: 3.39px;
      }
    </style>
  </defs>
  <rect class="cls-1" x="-47.42" y="-64.31" width="2612.45" height="2612.45"/>
  <g>
    <path class="cls-5" d="M1027.37,1675.82l1122.71-16.19m-1068.35,14.72l1077.16-14.72m-1055.13-1.47l1031.59-14.69m-993.38-24.99l986.04-14.72m-899.34-35.32l939.04-13.23m-903.76,8.82l893.47-11.75m-831.76-13.24l847.92-11.75m-797.95-16.2l802.35-11.78m-750.92-8.82l756.81-11.78m-692.16-48.53l711.26-10.29m-668.63-10.31l665.69-10.29m-599.58-19.12l620.14-8.85m-612.76-14.69l573.11-8.85m-502.59-41.15l527.56-7.37m-482.01-16.17l482.01-7.35m-423.22-22.07l436.43-5.89m-374.72-10.29l390.9-5.88m-336.51-27.96l345.32-4.41m-1277,492.75l1131.53-16.19m-1091.86-23.53l1083.03-16.16m-1040.41,11.75l1037.48-16.19m-947.84-13.22l993.39-14.72m-959.58-14.72l947.83-13.23m-889.05-14.71l900.8-13.24m-858.18-39.7l855.24-11.78m-809.69-13.23l809.7-10.31m-759.76-25.01l764.18-11.75m-736.23,7.34l718.58-10.31m-628.93-19.09l673.04-10.31m-662.75-26.47l627.49-8.85m-549.62-32.35l581.94-7.34m-546.69-13.26l534.93-7.34m-480.53-25.01l489.35-5.89m-415.89-7.35l443.81-5.89m-396.77-33.83l398.24-5.89m-380.61-22.06l352.69-5.89m-289.51-11.76l307.15-4.41m-245.41-27.95l261.57-4.41m-210.15-32.37l214.56-2.94M768.73,1767.02l1275.55-19.13m-1190.33-38.22l1182.97-16.19m-1156.51,20.6l1137.4-17.65m-1083.01-32.36l1091.86-14.72m-1016.92,10.29l1046.3-14.69m-1016.91-17.65l1000.76-14.72m-906.7-26.47l955.18-13.23m-931.68-35.3l908.17-13.24m-869.96-2.94l862.61-11.75m-796.46-1.47l817.04-11.78m-790.6-16.2l771.49-10.29m-724.48-29.4l724.48-11.78m-639.24-5.88l680.38-10.29m-626.02-30.91l634.83-8.82m-580.44-16.19l589.27-7.37m-558.41,0l542.25-8.82m-492.31-20.6l498.17-7.34m-439.38-29.42l451.13-5.89m-429.09-33.84l405.58-5.89m-339.46-7.34l360.04-4.41m-313-44.14l313-4.41m-255.7-39.71l268.92-4.41m-214.53-4.42l223.38-2.94m-160.19-29.42l176.36-2.94m-157.27-14.71l170.49-1.48M783.43,1739.07l1190.3-17.63m-1135.93-7.37l1144.75-16.19m-1094.78-52.94l1097.72-14.72m-1063.92,10.31l1053.64-14.72m-955.18-22.06l1008.1-14.72m-981.64-22.06l961.06-13.23m-918.45,8.82l915.5-13.23m-853.77-19.12l871.44-13.24m-824.41-35.32l824.41-11.75m-767.1-8.82l778.85-11.78m-755.33,2.93l733.27-10.29m-687.72-22.06l687.72-10.31m-617.18,1.47l642.19-8.82m-592.23-51.46l596.64-8.85m-533.43-8.81l549.59-7.37m-515.81-13.23l505.52-5.88m-451.15-17.66l459.97-7.34m-405.59-50.02l412.93-5.89m-377.67-14.69l365.92-4.41m-280.68-27.96l321.81-4.41m-299.77-36.77l276.27-2.94m-221.9-29.42l230.72-2.94m-163.12-1.47l183.68-2.94m-173.39-33.84l170.46-1.47m-113.16-22.06l166.05-2.94m-152.82-41.19l161.67-2.93M720.24,1759.67l1244.68-17.65m-1241.74,5.88l1197.65-17.63m-1134.47-16.19l1152.1-16.19m-1090.38-23.54l1106.54-16.19m-1068.35-32.35l1061-14.72m-986.05,8.85l1013.96-13.24m-971.36-7.35l968.41-13.24m-927.26-22.07l924.33-13.23m-900.82-19.12l877.3-13.24m-811.17-7.35l831.74-13.24m-774.44-48.53l786.19-10.29m-767.08-1.5l740.64-10.29m-658.33-26.47l695.08-10.31m-661.29,13.26l649.53-8.82m-590.73-27.96l603.95-8.82m-558.4-47.07l558.41-8.83m-499.65-20.58l511.4-7.37m-464.36-16.17l465.85-7.35m-408.55-22.05l420.3-5.9m-357.1-10.29l374.71-5.89m-360.01-19.12l327.69-4.41m-270.39-32.36l283.61-4.41m-213.05-11.78l238.06-4.41m-191.04-27.95l191.04-2.94m-149.89-22.06l171.93-2.94m-154.29-29.42l167.52-2.94m-138.14-33.83l163.11-1.48m-145.47-22.06l158.7-2.94m-120.5-33.83l152.82-1.47M633.53,1749.38l1250.54-19.13m-1235.85,10.3l1205.01-17.65m-1155.04-10.3l1159.45-17.65m-1116.84-19.13l1113.9-16.19m-1012.48-17.63l1068.35-14.72m-1037.5-24.99l1022.8-14.72m-972.84-14.69l977.25-13.24m-911.1-14.72l931.68-13.23m-868.49,4.41l884.65-13.24m-850.86-16.17l840.57-11.78m-830.29-23.53l795.02-11.75m-720.08-33.85l747.99-10.29m-686.27-14.72l702.43-8.85m-650.99-19.09l655.4-10.31m-609.85-22.06l611.33-8.82m-559.88,4.41l564.29-8.82m-523.16-36.78l520.2-7.34m-454.06-20.6l473.16-7.35m-430.56-22.07l427.63-5.88m-396.77-10.3l382.08-5.89m-295.36-26.47l335.04-5.89m-285.09-23.53l290.96-4.41m-232.17-23.54l243.92-4.41m-226.28-32.36l198.37-2.94m-157.23-25.01l171.93-2.94m-119.04-17.64l169.01-2.94m-151.38-38.25l164.6-1.47m-138.15-30.89l158.72-1.47m-124.9-22.07l154.29-2.94m-129.32-29.42l149.89-2.94M612.96,1733.19l1212.35-17.65m-1174.14,8.82l1166.8-16.16m-1100.68-52.97l1121.25-14.69m-1071.28-13.26l1075.69-14.72m-1025.73-13.22l1030.12-14.72m-955.18,8.85l984.57-13.24m-978.69-19.13l939.02-13.24m-884.65-26.48l893.46-13.23m-811.17,.01l847.9-11.78m-793.53-13.23l800.9-11.78m-758.28-8.82l755.32-10.31m-705.36-58.82l709.8-8.85m-653.95,16.19l662.77-8.85m-628.97-26.46l617.21-8.82m-590.75-27.94l571.63-8.85m-477.59-16.16l526.08-7.37m-495.22-25.02l480.54-7.34m-454.1-20.6l434.97-7.35m-340.91-19.12l389.42-4.41m-351.21-27.95l343.88-4.41m-301.25-39.71l296.84-4.41m-263.05-16.19l251.29-2.94m-168.98-17.65l205.71-2.94m-166.04-22.06l173.39-2.94m-144.02-33.83l168.98-1.47m-166.04-22.07l163.11-1.47m-121.97-38.25l160.18-2.94m-129.32-1.47l154.31-2.94m-121.97-29.42l151.36-2.96m-108.75-38.22l145.48-1.48m-120.5-30.89l141.1-1.47M491,1767.02l1265.24-17.63m-1187.36-23.57l1219.7-17.63m-1177.1-10.31l1174.15-17.65m-1103.61-.01l1128.59-16.16m-1083.03,0l1083.03-16.19m-1024.25-36.78l1037.48-14.69m-1011.03,17.66l991.93-13.24m-941.96-30.92l946.36-13.23m-892-35.3l899.35-13.23m-856.74-14.71l853.8-13.24m-827.34-16.17l808.24-10.31m-749.46-1.47l762.69-11.75m-677.45-22.06l717.12-10.31m-693.61-22.06l670.11-8.82m-612.81-2.94l626.02-8.85m-558.41-27.94l578.98-8.82m-533.43-32.36l533.43-7.35m-495.24-32.36l487.88-7.35m-445.25,10.3l442.32-5.89m-383.55-14.71l396.77-5.89m-355.6-63.24l351.2-4.42m-280.67-11.76l305.65-4.41m-274.79-11.76l260.11-4.41m-189.57-36.78l213.09-2.94m-166.08-10.29l174.88-2.94m-157.23-36.78l168.98-2.94m-126.38-29.42l164.57-2.93m-146.93-13.24l160.18-2.94m-130.8-26.47l155.77-1.48m-114.63-38.23l151.38-1.47m-148.41-22.07l145.48-2.94m-97-38.25l142.54-1.47m-120.5-35.29l138.13-1.48M470.41,1743.48l1227.06-17.65m-1146.23-19.1l1182.95-17.65m-1140.33,4.41l1135.93-16.19m-1105.08-16.19l1090.38-16.16m-1003.68-8.82l1044.82-14.72m-1011.02,1.47l999.28-13.24m-933.15-54.41l953.73-14.72m-899.36-26.47l906.68-13.24m-872.88-23.54l862.62-11.75m-811.18,16.16l815.59-11.75m-745.06-38.26l768.56-10.29m-725.94-1.47l723.01-10.31m-673.05-10.29l678.93-10.29m-645.13-17.68l633.37-10.29m-586.34-47.07l586.34-8.82m-543.72,4.41l540.79-7.35m-471.72-50.01l495.24-5.89m-436.47,1.47l449.69-5.88m-415.86-47.07l404.11-4.42m-345.35-16.17l358.56-4.41m-315.93-30.89l311.53-4.41m-249.82-13.24l267.45-2.94m-232.18-17.64l220.43-2.94m-154.3-25.01l174.86-2.94m-148.41-22.06l168.98-2.94m-123.43-33.84l164.6-1.47m-158.7-33.83l160.18-2.94m-126.38-22.06l155.77-1.47m-126.39-19.13l151.36-1.47m-110.22-30.89l148.41-1.47m-142.54-26.48l142.54-1.47m-88.14-26.48l138.13-2.94m-124.91-33.83l133.73-1.48M411.63,1768.49l1279.96-19.1m-1253.5-50.02l1234.4-17.65m-1180.03,41.18l1188.85-17.65m-1127.12-30.88l1143.28-16.19m-1131.53-4.41l1096.27-14.69m-1038.96-22.06l1052.17-14.72m-986.05-29.4l1006.62-14.72m-980.15-5.88l961.06-13.24m-874.37,20.58l915.5-13.24m-884.64-19.1l868.48-13.24m-806.76-27.94l822.93-11.78m-780.31-41.19l777.37-10.29m-699.49,1.47l731.81-10.29m-693.61-29.44l686.3-10.29m-674.52-10.31l639.24-8.82m-570.18-32.36l595.14-8.82m-520.2-11.76l548.14-8.83m-514.33-35.3l502.57-7.35m-455.55,5.89l457-5.89m-418.81-42.66l411.49-5.88m-336.53-7.35l364.42-4.42m-330.64-14.71l320.37-5.88m-263.04-55.89l274.8-2.96m-227.79,2.96l229.25-2.96m-163.11-42.66l182.21-1.47m-160.18-38.23l170.46-2.94m-152.84-13.24l166.05-2.94m-136.66-25.01l161.64-2.94m-123.45-33.83l157.23-1.47m-123.41-30.89l151.36-1.48m-129.32-10.3l146.95-2.94m-105.81-38.23l144.02-1.48m-117.57-22.05l138.13-2.94m-108.75-33.84l133.73-1.47m-104.34-19.12l129.35-1.47M395.47,1747.89l1241.73-17.63m-1224.09-10.31l1196.19-17.65m-1109.49-23.54l1150.64-16.16m-1121.26-32.37l1105.1-14.69m-1053.66,33.81l1059.51-14.72m-1013.95-17.63l1013.95-14.72m-936.07-33.84l968.41-13.23m-949.31-38.25l921.4-13.23m-867.03-4.42l875.85-11.75m-825.89,0l830.29-13.24m-771.51-48.55l784.74-10.29m-734.76,22.04l739.17-10.29m-687.75-10.29l692.14-10.31m-653.94-30.87l646.59-8.85m-573.11-35.29l602.5-8.85m-564.3-23.53l555.48-8.82m-508.45-39.7l509.92-7.35m-464.37,5.88l464.37-5.89m-409.99-42.64l418.81-5.89m-348.28-2.96l373.26-4.41m-323.28-32.35l327.69-4.41m-280.68-19.13l280.68-4.41m-258.64-20.6l236.59-2.94m-161.63-26.47l189.55-1.47m-161.64-17.65l171.95-2.94m-154.33-45.6l167.54-2.94m-136.69-33.84l161.67-1.47m-116.09-19.12l157.23-1.47m-139.61-30.89l152.82-1.47m-130.79-17.65l148.41-2.94m-102.86-10.3l144.03-1.48m-110.2-38.23l139.61-2.94m-105.82-29.42l135.2-2.94m-110.22-22.06l130.79-1.47m-124.91-33.84l126.38-2.94M373.43,1747.89l1205.01-16.19m-1134.47-48.51l1157.98-16.19m-1138.88-11.78l1110.96-16.16m-1025.73-8.85l1066.85-14.69m-1033.07-29.44l1021.32-14.72m-965.47-1.47l974.29-14.69m-947.84-5.88l928.74-13.24m-874.37-11.78l883.18-13.23m-809.69-32.37l837.64-11.75m-787.67-23.54l792.08-11.78m-772.98-8.81l746.54-10.29m-673.05-26.5l700.96-10.29m-658.36,5.88l655.43-10.31m-628.98-33.83l609.88-8.82m-543.73-36.77l564.3-7.35m-505.52,10.29l517.27-7.35m-458.51-36.76l471.72-7.35m-449.67-33.84l426.17-5.89m-360.04,1.48l380.61-5.89m-338-47.07l335.06-4.41m-271.85,4.41l288.02-4.41m-242.48-44.14l242.47-2.94m-196.92-38.23l198.4-2.94m-154.3-29.42l173.39-1.47m-146.95,1.47l167.52-2.94m-126.38-38.23l163.11-1.48m-145.47-29.42l158.7-2.96m-136.64-26.46l154.29-1.47m-116.09-42.67l148.41-1.47m-126.38-2.94l144.02-1.48m-102.88-22.06l141.07-2.94m-110.22-26.47l135.22-1.48m-105.81-42.64l130.79-1.47m-94.06-26.48l126.38-1.47m-99.93-23.54l121.97-1.47M352.87,1700.82l1165.33-16.16m-1110.98-48.53l1118.32-16.19m-1056.58,30.88l1074.22-14.69m-1036.02-73.56l1028.67-14.72m-946.38,17.66l983.11-13.23m-956.65-38.25l936.08-13.24m-881.71-4.41l890.53-11.75m-831.75-8.85l844.97-11.75m-818.52-23.54l799.42-11.78m-742.1-17.66l753.87-10.29m-702.43-33.84l706.84-10.29m-665.7-19.13l662.75-8.82m-611.32-11.76l615.73-8.82m-581.93,4.41l571.64-7.34m-492.28-17.68l524.61-7.35m-470.26-16.17l479.06-7.35m-437.91-54.42l433.5-5.89m-395.29-17.65l387.95-5.89m-329.16,8.83l342.38-4.41m-304.18-51.49l296.84-4.41m-214.53-25.01l251.29-4.41m-216.02-39.71l204.25-2.94m-164.59,10.3l171.95-2.96m-142.54-50l167.52-1.47m-133.73-30.89l163.11-1.48m-145.47-14.69l158.7-1.47m-108.75-14.71l154.29-2.94m-136.65-45.6l149.89-1.47m-127.83-19.13l145.48-1.47m-104.34-47.07l141.07-1.48m-119.04-1.47l136.66-2.94m-95.52-38.23l132.25-1.48m-110.22-26.48l127.84-1.47m-86.68-23.53l123.45-1.47m-104.35-22.07l117.56-1.47M346.98,1637.57l1127.11-16.16m-1072.74,14.72l1081.56-14.72m-1034.53-50.02l1034.53-14.69m-980.16,38.25l990.45-13.24m-916.96-47.07l944.9-13.24m-914.04-27.95l897.88-11.78m-871.44-7.35l852.31-13.23m-802.34-16.17l806.76-11.78m-747.99,7.37l761.22-11.78m-706.84-52.94l715.67-10.31m-661.3-14.69l668.64-8.85m-630.43,0l624.56-8.82m-546.68-32.36l579-7.34m-540.79-32.37l531.97-7.35m-473.19-13.23l486.41-7.35m-455.55-17.65l440.87-5.89m-390.9-14.71l395.31-5.89m-320.35-14.71l348.28-4.41m-326.24-35.3l302.73-4.41m-252.77-25.01l258.63-2.94m-176.35-26.48l211.61-2.94m-185.14-44.11l173.39-2.94m-135.18-10.3l169.01-2.94m-151.38-29.42l164.57-1.47m-130.79-22.07l160.2-2.93m-126.38-38.25l155.77-1.47m-114.63-22.07l151.36-2.94m-117.57-22.06l146.95-1.47m-129.32-22.06l142.56-2.94m-123.43-29.42l136.64-2.96m-91.09-17.64l132.25-2.94m-102.88-33.84l127.84-1.47m-105.79-35.29l123.45-1.47m-89.63-22.07l119.01-1.48m-101.38-23.53l114.63-1.47M338.16,1593.47l1088.92-16.19m-1011.02,14.72l1043.35-14.72m-1016.91-29.44l997.8-13.23m-959.61-2.93l952.25-13.24m-865.54-4.41l905.21-11.78m-883.18-27.95l861.14-11.75m-790.6-13.24l814.1-11.78m-799.4-11.76l768.55-11.75m-698.02,2.93l723-10.31m-652.47-47.05l675.97-10.31m-670.08-5.88l631.89-8.82m-540.77-11.78l584.88-8.82m-551.1-51.48l539.31-8.83m-480.52-13.23l493.77-5.89m-467.31-13.24l448.2-7.35m-390.9-14.71l402.63-4.41m-332.09-35.3l357.11-5.89m-326.25-26.47l310.08-4.41m-263.05-13.24l264.53-2.94m-202.81-29.42l218.97-2.94m-157.23-22.06l174.86-1.47m-157.26-45.6l170.49-2.94m-136.68-22.06l164.57-2.96m-158.69-17.64l160.18-1.47m-107.29-42.66l157.26-1.48m-138.17-7.35l151.38-1.47m-114.63-26.47l146.95-1.47m-113.15-47.08l142.54-1.47m-116.09-5.89l138.13-2.94m-113.15-38.23l133.73-1.47m-91.1-22.07l127.84-2.94m-110.22-29.42l123.45-2.94m-98.47-22.06l120.5-1.48m-86.72-30.88l116.09-1.48m-89.62-22.06l110.19-1.47M324.93,1602.29l1050.72-16.19m-980.18-33.83l1003.69-13.24m-984.59,1.47l958.14-13.23m-880.26-4.42l912.58-11.75m-874.37-51.48l867.03-13.24m-812.66-11.79l821.47-11.75m-767.1-13.25l775.92-10.29m-737.69-22.06l730.35-10.31m-664.22,13.26l684.79-10.29m-634.84-50.04l639.24-8.82m-603.96,4.41l592.23-8.82m-514.34-23.53l546.65-8.83m-515.79-32.36l501.1-7.35m-442.32-5.88l455.55-5.9m-421.75-45.59l409.99-5.89m-360.03-14.69l364.45-5.89m-314.48-23.54l318.87-4.41m-264.51-27.95l273.32-4.41m-221.89-23.54l226.3-4.41m-176.34-1.47l180.75-1.47m-160.18-45.61l170.46-2.94m-132.25-17.64l166.08-2.94m-136.7-33.83l161.67-1.48m-123.45-35.3l155.77-1.47m-135.2-26.47l152.82-1.47m-110.2-23.55l146.95-1.47m-113.16-22.06l142.56-2.94m-124.91-22.06l138.13-1.48m-99.92-17.64l133.73-2.94m-116.11-38.25l129.32-1.48m-95.54-30.88l124.94-1.47m-91.11-30.89l119.04-1.47m-85.25-22.06l114.63-2.94m-89.65-22.07l111.68-1.47m-73.49-26.47l105.81-1.47M320.52,1593.47l1012.5-14.72m-978.69-29.42l966.93-13.24m-889.05-35.32l921.39-13.23m-881.71,20.61l874.36-13.24m-805.31-27.95l830.3-11.78m-803.83-48.53l783.24-10.29m-703.9,1.47l736.24-10.31m-723.01-29.42l692.13-10.31m-609.85-11.75l646.59-8.82m-595.16-11.78l599.58-8.82m-565.78-42.66l554.02-8.82m-499.63-16.19l508.47-7.34m-449.69,2.92l462.9-7.34m-401.18-33.84l417.34-5.89m-374.74-30.87l371.79-4.42m-336.53-7.35l324.78-5.89m-288.03-42.66l280.69-4.41m-229.27-16.19l233.66-4.41m-160.18-8.82l189.57-2.94m-157.23-45.6l171.93-2.94m-166.05-17.64l167.52-1.48m-117.56-38.23l161.64-2.94m-148.43-17.65l158.72-1.48m-116.09-38.23l152.82-2.94m-123.43-10.3l148.41-1.48m-126.38-33.81l144.02-2.96m-114.63-17.64l139.61-2.94m-94.03-42.67l135.2-1.47m-108.75-22.06l129.32-1.47m-107.29-10.3l124.91-2.94m-79.36-33.83l120.5-1.47m-102.85-39.73l116.09-1.47m-86.72-10.3l111.68-1.47m-73.47-35.3l107.27-1.47m-89.65-30.89l102.88-1.48M307.31,1522.85l972.82-14.69m-918.45-2.97l927.27-13.23m-849.39-2.93l881.71-13.24m-862.61-7.35l836.16-11.78m-778.85-48.53l790.61-11.75m-711.26-5.91l743.57-10.29m-728.87,1.48l698.02-8.82m-624.53-35.32l652.46-8.82m-618.67-35.3l608.39-8.83m-570.18-7.34l562.82-8.83m-492.28-1.47l517.26-7.35m-477.59-16.19l470.24-7.35m-429.09-45.6l424.68-5.88m-354.15-10.3l379.13-5.89m-340.92-19.12l333.57-4.41m-282.13-39.71l286.54-4.41m-220.41-8.83l240.99-2.94m-218.96-36.77l195.44-2.94m-136.66-38.25l171.94-2.93m-154.3-22.06l167.53-1.48m-145.48-26.47l163.12-1.47m-105.82-23.54l158.7-1.48m-152.82-33.83l154.29-2.94m-120.49-22.06l149.92-1.47m-116.11-38.25l145.48-1.48m-111.68-23.53l139.61-1.47m-110.23-26.47l136.66-1.48m-98.47-10.3l130.79-2.94m-104.3-29.42l126.38-2.94m-105.82-41.18l121.97-2.94m-74.95-10.3l116.09-1.47m-102.86-33.84l113.16-2.94m-79.35-14.71l108.73-1.47m-79.34-26.48l104.32-1.47m-74.93-42.66l99.93-1.48M305.84,1518.44l934.61-13.24m-871.43,4.42l889.06-13.24m-852.33-58.86l843.51-13.23m-796.49,11.79l797.94-11.78m-771.49-32.37l752.4-10.29m-693.62-2.94l706.84-8.82m-628.94-30.89l661.29-10.29m-630.43-14.72l614.27-8.82m-552.56-48.55l568.71-7.35m-526.08-4.42l523.15-7.35m-457.03-13.23l477.6-7.35m-434.97-13.24l432.04-5.89m-370.33-35.3l386.49-5.88m-335.05-7.35l339.46-4.41m-282.16-39.71l295.36-4.41m-264.51-35.32l248.35-4.41m-198.37-24.99l202.8-2.96m-163.12-5.88l171.93-1.48m-154.3-38.23l167.53-2.94m-121.97-33.83l163.11-1.47m-138.13,1.47l160.19-2.94m-121.97-50.01l154.29-1.47m-132.25-17.65l149.89-2.93m-104.34-26.5l145.48-1.47m-119.01-22.07l139.61-2.93m-119.05-26.47l136.66-1.47m-98.45-26.48l132.25-1.47m-119.04-33.84l127.84-2.94m-96.99-26.47l121.97-1.47m-85.21-10.3l119.04-1.47m-85.24-47.08l113.16-1.48m-91.13-26.47l108.75-1.47m-74.97-30.89l104.34-1.47m-70.52-23.53l99.91-1.47m-73.46-30.91l94.03-1.47M308.77,1486.1l896.41-13.24m-834.68-27.95l850.86-11.78m-843.51-11.76l805.29-11.78m-743.57,2.97l759.74-10.31m-689.2-22.06l714.18-10.29m-671.57-50.04l667.16-10.29m-609.85-19.13l623.08-8.82m-580.46-11.76l577.52-7.35m-534.9-20.6l530.49-7.35m-471.71-22.06l484.94-7.35m-439.39-25.01l439.39-5.89m-383.54,13.24l392.36-5.89m-339.46-58.83l348.29-4.42m-296.87-16.17l301.26-4.41m-235.13-16.19l255.7-4.41m-233.65-36.77l210.15-2.94m-167.53,2.94l173.41-2.94m-148.44-45.6l169.01-1.47m-130.79-10.3l164.59-2.96m-123.45-45.58l160.16-2.94m-121.95-17.66l155.78-2.94m-133.73-17.64l149.89-1.48m-124.91-47.07l146.95-1.47m-120.5-5.89l141.07-2.94m-111.68-50l136.66-1.47m-98.47-10.3l132.28-2.94m-121.97-29.43l127.84-1.48m-95.52-30.88l123.45-1.48m-97-23.53l119.04-1.47m-73.46-26.48l114.6-1.47m-92.57-42.66l108.75-1.47m-79.36-19.12l105.81-1.48m-72.02-30.89l99.93-1.47m-66.11-23.53h95.5m-66.15-27.95l91.11-1.47M288.2,1439.03l858.2-13.24m-800.88-16.2l812.65-11.75m-765.62-20.6l767.08-10.31m-721.53-14.69l721.53-10.31m-665.7,17.66l674.51-8.82m-624.53-35.32l628.96-8.82m-590.76-47.07l583.41-8.83m-533.43-11.76l537.84-8.82m-483.47-16.19l492.29-7.34m-433.51-29.43l445.26-5.89m-395.29,8.83l401.17-5.89m-370.31-33.83l354.15-5.89m-264.51-23.54l310.07-4.41m-267.46-25.01l263.04-2.94m-216.01-29.42l217.49-2.94m-176.34-8.82l173.41-2.93m-139.62-29.43l169-2.94m-151.36-29.43l164.6-2.94m-139.61-36.76l160.18-2.96m-117.57-14.69l155.77-1.48m-146.96-29.42l151.36-2.94m-96.97-26.47l146.97-1.47m-133.74-26.48l142.55-1.48m-96.99-27.94l138.13-1.47m-123.45-33.84l132.25-1.47m-86.7-26.47l127.84-2.96m-98.45-26.47l123.47-1.48m-97-14.69l119.04-1.47m-82.31-42.67l114.63-1.47m-92.59-26.47l110.22-1.47m-83.75-30.89l105.78-1.48m-83.75-19.12l99.91-1.47m-54.36-26.48l95.52-1.47m-82.31-26.47l92.59-1.47m-51.45-32.37h88.18M270.56,1411.05l820-11.75m-737.69-1.47l774.42-10.31m-750.92,1.49l727.41-10.31m-674.51-61.77l683.33-10.29m-648.06-1.48l636.31-10.31m-570.18-2.93l590.75-8.82m-524.61-27.95l545.2-7.37m-507-33.83l499.63-7.34m-477.59-8.83l454.08-5.89m-383.54-26.48l408.51-5.88m-346.8-35.29l362.97-4.42m-315.94,4.42l317.42-4.42m-274.8-48.53l270.39-4.42m-199.85-11.76l224.83-4.41m-179.28-20.6l179.28-2.94m-163.12-33.83l170.47-1.48m-152.84-22.06l166.06-2.94m-107.29-29.42l160.18-2.96m-139.61-33.81l157.25-2.94m-119.04-17.65l152.84-1.48m-130.8-35.29l146.96-1.48m-124.91-10.3l142.54-1.47m-108.74-47.07l138.13-1.47m-108.73-10.3l133.73-1.47m-111.7-35.3l129.32-1.48m-91.11-10.3l124.91-1.47m-95.54-51.48l119.04-1.47m-77.87-14.72l116.09-1.47m-105.81-30.89l110.22-1.47m-72.02-26.48l105.81-1.47m-76.42-26.48l101.4-1.48m-67.59-23.53l96.97-1.47m-63.18-30.88l92.57-1.47m-72-35.32h88.18m-57.33-27.94l83.77-1.48M277.9,1415.49l781.79-11.78m-739.17-33.81l734.76-10.31m-705.37-22.07l690.67-8.82m-627.46-14.71l643.65-10.29m-561.36-11.78l598.09-8.82m-567.23-7.37l552.55-7.35m-502.58-45.6l506.98-7.34m-457.02-36.78l461.44-5.89m-407.07-2.93l415.88-5.89m-370.33-42.66l370.31-4.41m-335.03,0l323.3-4.41m-252.77-20.6l277.75-4.41m-239.54-27.95l232.18-2.96m-170.46-38.22l186.62-1.48m-163.12-14.69l171.94-1.48m-138.13-22.06l167.53-2.94m-121.98-33.83l161.63-2.94m-139.58-33.84l157.25-1.48m-139.62-30.88l152.82-1.47m-130.77-26.47l148.41-1.48m-110.2-26.48l142.55-2.94m-110.23-29.42l139.61-2.94m-108.74-17.65l133.72-1.47m-99.92-23.53l129.33-1.47m-99.93-33.84l124.91-2.94m-99.95-29.42l121.97-1.47m-91.11-19.13l116.09-1.47m-94.06-26.48l111.68-1.47m-82.29-27.95l107.27-1.47m-69.05-17.65l101.4-1.47m-67.6-30.91l97-1.47m-72.02-23.53l94.06-1.47m-60.24-38.25l89.62-1.48m-60.23-19.12l85.24-1.47m-54.38-35.3l79.36-1.48M257.33,1391.93l742.1-11.75m-700.95-25.01l698.02-10.31m-631.89-26.47l652.47-10.29m-617.21-33.85l605.44-8.82m-527.56-8.82l559.88-7.35m-521.67-25.01l514.34-7.35m-479.08-20.6l467.3-7.35m-405.58-33.83l423.22-5.89m-364.44-14.71l376.19-5.88m-335.05-30.89l332.12-4.41m-264.52-8.83l285.09-4.41m-246.87-4.42l239.53-2.94m-193.98-52.94l193.98-2.94m-139.61-26.47l171.94-1.47m-161.64-22.07l167.52-1.48m-133.73-38.23l163.12-2.94m-129.32-22.06l158.71-1.47m-141.07-5.89l154.29-2.94m-104.33-38.25l148.4-2.94m-138.12-29.4l144.02-1.48m-110.22-30.88l139.61-1.48m-107.27-38.23l136.68-2.94m-94.07-5.89l130.79-1.47m-113.14-38.25l126.38-2.94m-104.34-17.65l121.97-1.47m-83.75-27.95l116.07-1.47m-91.1-38.23l113.16-1.48m-74.95-2.94l107.27-1.48m-85.24-35.29l102.88-1.47m-66.12-33.84l99.91-1.48m-73.46-23.53l94.06-1.47m-72.02-26.48l89.65-1.47m-52.92-35.3l85.24-1.47m-58.77-22.06l80.8-1.48m-51.41-27.95h76.4M258.81,1336.05l705.37-10.31m-658.35,17.66l659.82-10.29m-609.86-58.86l612.78-8.82m-586.34-2.93l567.23-8.83m-508.45-27.94l521.68-7.37m-443.8-10.3l476.12-7.35m-433.5-20.58l430.57-7.35m-399.7-17.65l383.54-5.89m-333.58-38.25l337.99-4.41m-255.7-17.65l292.44-2.94m-265.98-41.18l246.88-2.94m-188.11-8.83l201.32-2.94m-164.56-54.41l173.39-1.47m-158.71-1.49l167.53-2.94m-126.38-38.22l163.12-2.94m-133.73-25.02l160.18-2.94m-129.32-1.45l154.3-2.94m-117.56-33.84l149.9-1.48m-135.21-35.3l145.48-1.45m-116.11-26.48l141.07-1.47m-102.85-26.47l135.2-2.94m-94.04-29.43l132.25-2.94m-102.88-26.47l127.86-1.47m-98.47-33.84l123.45-1.47m-101.4-26.48l119.02-2.94m-92.58-14.69l113.15-1.47m-83.75-42.67l108.73-1.47m-74.93-5.89l104.34-1.47m-66.15-35.3l99.93-1.47m-86.7-26.47l95.52-1.47m-57.3-27.96h89.62m-67.59-27.95l85.21-1.48m-48.48-35.29h82.31m-55.86-23.53l76.43-1.48m-42.61-30.88l72-1.48M242.64,1308.11l665.69-10.31m-611.3-30.88l620.14-8.83m-554-4.41l574.59-7.35m-531.98-20.58l529.04-7.37m-495.24-36.77l483.46-7.35m-436.43-17.64l436.43-5.89m-390.87-2.94l392.35-5.89m-333.58-38.25l345.35-4.41m-286.57,7.35l299.78-4.41m-242.47-48.55l255.7-2.94m-204.26-25.01l208.67-2.94m-195.44-17.64l173.41-2.94m-120.5-50.01l169-1.47m-142.55-22.06l163.12-2.94m-117.56-10.3l160.18-1.48m-126.39-30.88l154.3-1.47m-141.07-17.66l151.36-2.94m-124.9-38.23l145.47-1.47m-116.08-35.3l141.07-1.48m-123.45-14.69l136.68-1.48m-98.47-33.83l132.25-2.96m-102.85-10.29l127.83-1.47m-86.69-38.25l123.43-1.48m-89.63-23.53l119.04-1.48m-92.58-30.88l113.15-1.48m-91.11-33.83l108.74-1.48m-79.35-11.76l104.33-1.47m-74.93-42.64l99.93-1.48m-70.56-26.47l97-1.48m-66.15-26.48l91.11-1.48m-57.29-16.16h86.69m-61.72-39.73l82.28-1.47m-55.83-23.53h76.43m-47.04-27.95h73.49M241.17,1296.33l627.48-8.82m-584.86-44.14l581.93-8.83m-520.2,0l536.38-7.34m-509.93-36.78l490.83-7.34m-427.64-25.01l443.8-7.35m-402.65-13.24l399.7-5.88m-324.76-16.2l354.15-4.41m-323.3-11.76l307.14-4.41m-245.41-35.3l261.57-4.41m-202.8-32.36l216.02-4.41m-179.28-27.95l173.41-2.94m-148.43-22.06l170.47-2.94m-124.92-17.65l166.06-2.94m-171.94-29.42l160.18-1.48m-114.63-33.83l155.78-2.94m-121.97-29.4l151.36-2.96m-113.15-17.64l146.96-2.94m-133.73-17.66l142.54-1.47m-92.58-23.54l138.14-1.47m-123.45-26.47l132.27-1.47m-91.13-38.25l127.84-2.94m-94.04-22.06l123.45-1.47m-105.81-38.25l119.02-1.47m-80.81-19.13l114.61-1.47m-105.81-23.53l110.22-1.48m-64.65-33.84l105.81-1.48m-79.36-30.88l101.4-1.47m-72-27.94l96.99-1.48m-67.6-26.48l92.57-1.48m-58.77-23.53h88.18m-61.74-23.53l82.31-1.47m-52.93-35.3h77.9m-47.02-27.95l73.46-1.47M239.71,1259.57l589.28-7.35m-537.84-20.6l543.72-7.35m-517.27-13.23l498.16-7.35m-452.59-33.84l452.61-5.89m-402.65-22.06l407.06-5.89m-360.04-19.12l360.04-4.41m-277.75-23.54l314.48-5.89m-271.86-23.53l268.92-4.41m-227.76-39.71l224.83-2.94m-173.39,5.89l177.8-2.94m-154.3-33.83l170.46-1.47m-129.32-22.07l166.05-2.96m-141.06-52.94l161.66-2.94m-119.05-22.06l155.78-2.94m-145.48-29.4l151.36-1.48m-101.4-7.35l146.96-1.48m-133.73-42.64l142.54-1.47m-101.4-14.72l138.14-1.48m-116.11-42.66l133.73-1.47m-107.26-23.53l127.84-1.47m-82.29-17.66l124.91-2.94m-99.95-29.42l120.5-2.94m-102.86-29.42l116.09-1.47m-89.63-14.71l110.22-1.48m-80.83-35.29l107.27-1.47m-69.06-19.13l101.4-1.48m-76.42-38.23l97-1.47m-63.2-23.54l92.58-1.47m-61.72-35.32h86.7m-49.96-20.58h83.75m-57.29-30.89l77.9-1.47m-48.52-27.95h74.95M195.62,1236.03l551.07-7.34m-493.77-29.43l505.51-5.89m-451.13-17.65l459.96-7.35m-405.59-33.83l414.41-5.88m-360.03-2.96l368.85-4.41m-321.83-11.76l321.83-4.41m-263.05-48.55l276.26-4.41m-246.87-20.6l230.72-2.94m-155.77-17.65l185.16-2.93m-155.77-45.6l171.93-1.47m-152.82-22.06l166.05-2.94m-136.66-17.65l161.64-2.94m-116.09-33.83l157.25-1.47m-119.04-26.5l152.84-2.94m-130.8-17.64l146.96-1.48m-126.38-26.47l144-1.48m-101.4-30.88l138.13-2.94m-108.73-25.01l135.2-2.94m-110.22-38.23l130.79-1.47m-111.7-14.72l124.91-1.48m-95.51-26.46l120.5-1.47m-95.52-30.89l117.56-1.47m-70.53-26.5l111.68-2.94m-98.47-26.46l107.27-1.47m-69.05-26.5l101.4-1.47m-80.83-26.47l98.45-1.47m-67.6-26.48l92.59-1.47m-55.86-35.3l89.65-1.48m-67.6-19.12l85.24-1.47m-47.03-35.3h79.35m-45.55-23.53l74.93-1.48M226.48,1208.08l512.86-7.35m-467.3-32.36l467.31-7.34m-443.8-1.48l420.29-5.89m-365.93-26.47l374.72-5.89m-317.41-47.07l329.16-4.41m-270.37-8.82l283.62-2.94m-249.82-41.19l238.06-2.94m-171.94-1.47l192.5-2.94m-154.29-33.83l171.93-2.94m-149.88-8.83l167.53-2.93m-126.39-45.6l163.12-2.94m-144.02-13.23l157.25-2.94m-127.84-33.84l152.81-1.48m-119.02-38.23l148.41-2.94m-114.61-22.06l144.02-1.47m-119.02-14.71l139.61-1.47m-113.16-47.08l135.2-1.48m-105.81-26.47l130.79-1.47m-108.75-19.13l126.38-1.47m-92.58-30.89l120.5-1.47m-86.7-30.88l116.09-1.47m-82.29-23.55l111.68-1.47m-89.63-17.65l107.27-1.47m-66.13-30.89l102.86-1.48m-85.22-23.53l98.45-1.47m-60.24-26.48l94.06-1.47m-64.68-35.3l89.65-1.48m-72-22.05l85.24-1.48m-55.86-27.94h80.84m-42.63-35.3l74.95-1.47M176.52,1181.6l474.65-7.35m-415.89-29.42l429.1-5.89m-374.74-26.47l382.09-5.89m-335.05-19.12l336.51-4.41m-282.14-20.6l290.96-4.41m-249.81-32.37l245.41-2.94m-182.23-38.23l199.85-1.47m-155.77-22.06l173.39-2.94m-126.36-10.3l167.52-1.47m-163.12-42.67l164.59-1.47m-126.38-10.29l158.71-2.94m-141.07-29.43l154.3-2.94m-120.5-36.76l149.9-2.94m-116.11-29.43l145.49-2.94m-119.05-14.69l139.61-1.48m-110.22-26.48l136.68-1.47m-91.13-26.47l132.27-2.94m-98.47-22.06l126.39-1.47m-108.74-38.25l121.97-1.48m-88.17-23.53l117.56-1.48m-99.93-22.05l113.16-1.48m-70.54-30.89l108.75-1.47m-74.95-23.54l102.86-1.48m-82.29-33.81l99.92-1.47m-69.05-27.96l94.04-1.47m-57.31-19.12l91.1-1.47m-72-30.91h85.22m-55.83-19.12l80.8-1.48m-51.41-35.29l76.42-1.47M172.11,1149.24l436.43-5.89m-379.12-30.88l390.9-5.89m-332.12-22.06l345.33-5.88m-290.96-2.96l299.78-4.41m-261.57-44.12l252.75-4.41m-189.57-13.24l207.2-2.94m-151.36-36.77l173.41-2.94m-163.12-22.06l169-1.47m-146.95-26.48l163.11-2.94m-114.63-29.42l160.18-2.94m-138.13-1.47l155.75-2.94m-138.12-45.6l151.36-1.47m-96.99-19.13l145.48-1.47m-132.25-33.83l141.07-2.94m-107.29-38.23l136.68-1.48m-91.11-19.12l132.25-1.47m-129.32-30.89l126.39-1.48m-85.24-30.88l123.45-1.48m-89.65-14.71l119.04-1.47m-92.59-14.71l113.16-1.47m-76.42-35.3l110.22-1.48m-88.18-42.66l104.34-1.47m-74.95-26.47l99.93-1.47m-66.13-23.55h95.52m-73.47-19.12l91.1-1.47m-52.9-35.3l86.72-1.47m-52.9-23.54h80.81m-55.83-32.36h77.88M182.39,1100.71l398.24-4.41m-360.03-2.94l352.67-5.89m-310.07-30.89l305.66-4.41m-242.46-20.6l260.12-4.41m-186.65-16.19l214.55-2.93m-182.21-41.19l173.39-2.96m-152.82-33.81l170.46-2.94m-139.61-17.64l164.59-2.94m-142.54-17.65l160.18-1.47m-121.97-10.31l155.77-2.94m-123.43-52.94l151.36-2.94m-117.57-22.06l146.96-1.47m-113.16-23.54l142.55-1.47m-116.09-14.72l136.66-1.47m-119.02-38.25l132.25-1.47m-82.29-23.53l127.84-1.48m-110.22-38.25l123.45-1.47m-82.29-14.71l119.04-1.48m-96.99-19.12l114.63-1.48m-85.24-42.64l110.22-1.47m-83.77-30.89l105.79-1.48m-83.75-19.12l99.92-1.47m-63.19-26.48l96.99-1.47m-58.78-27.95h91.11m-64.65-30.89l86.7-1.47m-57.31-27.95l82.29-1.48m-60.26-26.47l77.88-1.47M286.72,1043.33l267.45-2.94m-229.24-20.58l221.9-2.94m-164.59-42.66l176.35-1.48m-169-26.46l170.46-1.48m-132.25-33.84l164.59-2.94m-135.21-1.47l161.66-2.94m-127.84-54.42l155.77-1.47m-126.38,5.88l152.84-2.94m-119.04-45.59l146.96-2.94m-113.16-29.42l142.54-1.47m-132.25-22.06l138.13-2.94m-104.33-22.06l133.73-1.48m-88.17-35.3l129.32-1.48m-95.54-22.05l124.91-2.94m-119.04-33.83l119.04-1.47m-77.88-14.71l116.11-1.48m-77.9-35.3l110.22-1.47m-92.59-30.91l105.81-1.47m-76.42-26.47l101.4-1.47m-72.01-26.48l97-1.47m-63.19-30.89l92.58-1.48m-61.72-19.12l86.7-1.47m-64.67-26.47l82.29-1.47m-45.55-27.95l79.36-1.47M391.06,922.73l166.05-1.48m-139.61-30.88l161.66-1.47m-144.02-38.25l157.25-2.94m-132.27-29.42l152.84-2.94m-119.04-22.06l148.41-1.47m-110.19-19.13l142.54-1.47m-120.5-33.84l138.14-2.94m-120.5-22.05l133.72-1.48m-97-26.48l130.8-1.47m-88.17-23.53l124.9-1.47m-107.27-29.43l120.52-2.94m-79.36-22.06l116.09-1.48m-98.45-30.88l111.68-1.47m-73.49-26.48l107.27-1.48m-80.81-14.69l101.4-1.48m-72.01-44.12h96.99m-63.19-16.19l92.58-1.47m-66.12-30.89l88.17-1.47m-55.85-30.88l85.22-1.47m-54.36-26.48l79.35-1.48"/>
    <path class="cls-2" d="M1484.38,1188.96h1.47l94.06-517.75h264.52l-207.22,838.42h-268.92l-96.97-486.87h-2.93l-94.07,486.87h-270.38l-207.19-838.42h264.51l94.04,517.75h2.94l99.93-517.75h226.31l99.91,517.75Z"/>
    <path class="cls-4" d="M696.74,2022.97h1.47l44.07-179.45h108.75l-92.58,288.28h-110.22l-45.55-169.14-41.15,169.14h-111.68l-94.04-288.28h111.68l44.08,179.45,45.56-179.45h95.51l44.1,179.45h0Zm305.66,52.94c-22.05,0-35.28-10.29-35.28-25.01,0-36.78,48.49-27.94,86.7-45.6,2.94,38.26-10.3,70.61-51.43,70.61Zm180.73,55.89v-5.88c-14.69-11.75-14.69-19.13-14.69-36.76v-133.85c0-69.13-8.82-119.17-145.48-119.17-113.16,0-157.25,35.32-157.25,97.09h110.22c2.94-25.01,24.98-27.94,39.67-27.94,13.23,0,38.2,2.94,38.2,23.53,0,52.94-205.73-5.9-205.73,125.02,0,58.84,48.49,86.78,102.86,86.78,42.62,0,76.42-8.85,108.74-39.71l5.89,30.88h117.57Zm207.22,0c-149.9,8.85-169.01-1.44-169.01-101.48v-120.61h-39.67v-66.2h42.62v-88.26h111.68v88.26h55.86v66.2h-55.86v104.42c0,26.47,4.41,36.78,36.76,36.78h17.63v80.88h0Zm130.79-176.49c0-29.44,20.57-50,54.36-50,26.45,0,49.96,25.01,49.96,50h-104.32Zm218.97,58.82c1.47-104.42-63.2-177.98-169.01-177.98-92.59,0-163.11,60.31-163.11,154.44s70.53,150.03,163.11,150.03c67.61,0,139.61-23.53,158.7-95.6h-108.75c-7.31,17.65-24.98,25.01-42.61,25.01-30.86,0-57.3-22.06-57.3-55.91h218.97Zm17.63-170.59h102.85v58.82h1.47c16.16-44.1,44.1-66.2,89.65-66.2h26.45l-10.29,117.69c-7.34-1.47-17.63-5.9-24.98-5.9-47.02,0-70.54,22.06-70.54,85.32v98.54h-114.6v-288.27h0Z"/>
    <path class="cls-3" d="M2083.96,1718.47h117.56v117.67h119.04v117.69h-119.04v117.66h-117.56v-117.66h-117.57v-117.69h117.57v-117.67Zm210.15,66.2c19.1,0,33.79-14.72,33.79-33.84,0-20.57-14.69-33.81-33.79-33.81s-35.29,13.24-35.29,33.81c0,19.12,16.16,33.84,35.29,33.84Zm-27.94-33.84c0-16.16,11.75-29.39,27.94-29.39,14.69,0,27.91,13.23,27.91,29.39,.02,15.42-12.46,27.94-27.88,27.96h-.03c-16.19,0-27.94-11.78-27.94-27.96Zm20.58,2.96h7.34l10.29,16.16h5.88l-10.29-16.16c5.88-1.47,10.29-4.41,10.29-11.78s-5.88-11.75-14.72-11.75h-14.67v39.7h5.88v-16.17h.01Zm0-5.9v-11.75h7.34c4.41,0,8.82,1.47,8.82,5.88,0,5.88-4.41,5.88-8.82,5.88h-7.34Z"/>
  </g>
</svg>