<svg width="481" height="481" viewBox="0 0 481 481" fill="none" xmlns="http://www.w3.org/2000/svg">
<path d="M449.011 315.118C449.066 314.997 449.09 314.868 449.136 314.751C466.276 265.692 479.232 213.182 480.127 209.496C480.248 208.945 480.31 208.386 480.31 207.824C480.31 207.727 480.31 207.633 480.31 207.535C480.291 206.637 480.119 205.747 479.799 204.903C479.72 204.688 479.631 204.497 479.545 204.29C478.818 202.506 477.401 201.092 475.616 200.37C475.425 200.284 475.241 200.202 475.042 200.131C474.191 199.803 473.289 199.624 472.379 199.608C472.289 199.608 472.211 199.608 472.121 199.608C471.551 199.616 470.985 199.678 470.427 199.803C466.756 200.698 414.23 213.654 365.171 230.793C365.054 230.84 364.925 230.864 364.804 230.918C345.763 237.33 327.187 245.035 309.197 253.985C308.939 254.095 308.689 254.223 308.447 254.368C300.176 258.402 292.519 263.591 285.708 269.781C253.566 301.923 240.844 363.239 269.139 399.45L257.838 410.751C254.261 414.387 251.001 418.327 248.099 422.521V247.94H288.086C292.503 247.94 296.084 244.359 296.084 239.943C296.084 235.522 292.503 231.945 288.086 231.945H248.099V127.776C274.739 127.42 301.297 124.745 327.472 119.778C336.629 151.057 341.999 183.32 343.467 215.876C343.69 220.293 347.446 223.694 351.863 223.475C356.283 223.253 359.685 219.492 359.462 215.076C357.966 181.665 352.492 148.546 343.163 116.428C366.011 111.293 388.195 103.557 409.286 93.3803C431.029 118.396 446.95 147.921 455.912 179.833C456.654 182.613 458.829 184.781 461.613 185.511C464.397 186.241 467.357 185.417 469.364 183.359C471.375 181.297 472.121 178.318 471.321 175.553C447.899 91.5137 380.709 26.8039 295.85 6.55257C210.986 -13.6949 121.819 13.7026 62.9747 78.1117C-0.684605 147.75 -17.6011 248.241 19.7464 334.885C57.0899 421.525 141.766 478.226 236.103 479.761C237.298 480.53 238.68 480.96 240.102 480.999C244.518 480.999 248.099 477.418 248.099 473.001C248.044 453.902 255.636 435.576 269.178 422.107L280.448 410.837C294.772 421.475 312.251 426.996 330.089 426.52C359.907 426.321 388.531 414.778 410.149 394.237C416.338 387.427 421.528 379.769 425.562 371.498C425.706 371.256 425.831 371.006 425.945 370.749C434.895 352.754 442.599 334.167 449.011 315.118V315.118ZM179.152 455.311C177.161 454.745 175.154 454.175 173.201 453.554C171.604 453.043 169.964 452.496 168.347 451.953C166.403 451.289 164.47 450.618 162.541 449.907C160.943 449.313 159.342 448.7 157.741 448.068C155.84 447.314 153.946 446.537 152.056 445.732C150.49 445.061 148.928 444.374 147.37 443.667C145.511 442.815 143.66 441.941 141.821 441.046C140.286 440.293 138.755 439.531 137.244 438.75C135.42 437.805 133.616 436.829 131.816 435.837C130.32 435.041 128.84 434.189 127.368 433.334C125.576 432.288 123.811 431.21 122.042 430.136C120.62 429.257 119.187 428.379 117.789 427.457C116.02 426.305 114.275 425.114 112.541 423.907C111.182 422.97 109.823 422.045 108.48 421.069C106.742 419.803 105.039 418.491 103.337 417.179C102.048 416.187 100.752 415.223 99.4904 414.204C97.7605 412.813 96.0813 411.365 94.3944 409.92C93.2112 408.904 91.9967 407.913 90.8369 406.87C89.0836 405.273 87.381 403.672 85.6784 402.075C84.6397 401.075 83.5658 400.114 82.5427 399.099C82.4138 398.978 82.2967 398.841 82.1756 398.712C101.291 390.039 121.245 383.358 141.731 378.777C150.947 408.584 167.23 435.724 189.188 457.889C187.47 457.487 185.76 457.088 184.053 456.663C182.351 456.241 180.777 455.768 179.152 455.311V455.311ZM70.9136 93.3412C91.9264 103.483 114.025 111.195 136.783 116.334C126.115 153.955 120.55 192.841 120.234 231.945H16.3568C18.1219 180.856 37.3813 131.923 70.9136 93.3412ZM82.5974 80.7827C83.5346 79.8651 84.5108 78.9943 85.4519 78.0883C87.2521 76.3779 89.0445 74.6597 90.8916 73.0118C92.0045 72.0199 93.1565 71.0671 94.2928 70.0987C96.0267 68.603 97.7605 67.1152 99.5451 65.6782C100.767 64.6941 102.033 63.7491 103.27 62.7885C105.016 61.453 106.75 60.1097 108.527 58.7898C109.846 57.8409 111.19 56.9193 112.525 55.9899C114.286 54.7754 116.036 53.5922 117.82 52.409C119.218 51.4991 120.636 50.6244 122.042 49.7536C123.819 48.6485 125.599 47.5551 127.407 46.5085C128.864 45.6573 130.344 44.8372 131.816 44.0211C133.624 43.0214 135.444 42.0451 137.279 41.0923C138.79 40.3191 140.309 39.5615 141.836 38.8118C143.675 37.9097 145.538 37.0311 147.432 36.1837C148.986 35.4769 150.544 34.7896 152.114 34.118C153.993 33.3175 155.894 32.5208 157.808 31.775C159.405 31.1502 161.006 30.5371 162.607 29.9435C164.532 29.2328 166.469 28.5612 168.418 27.8973C170.019 27.3545 171.62 26.8078 173.256 26.2963C175.232 25.6754 177.255 25.1052 179.223 24.539C180.824 24.0821 182.421 23.6096 184.084 23.1879C185.748 22.7622 187.501 22.3874 189.22 21.9617C167.246 44.1304 150.954 71.2819 141.731 101.104C121.269 96.5355 101.33 89.8658 82.2303 81.2084C82.3357 81.0717 82.4646 80.9194 82.5974 80.7906V80.7827ZM232.104 111.788C207.241 111.429 182.456 108.981 158.007 104.47C175.642 55.4549 202.336 21.9305 232.104 16.811V111.788ZM120.234 247.94C120.55 287.041 126.115 325.927 136.783 363.548C114.021 368.687 91.9186 376.399 70.9058 386.54C37.3813 347.955 18.1219 299.025 16.3568 247.94H120.234ZM158.007 375.411C182.456 370.901 207.241 368.456 232.104 368.093V463.11C202.336 457.951 175.642 424.427 158.007 375.411ZM232.104 352.106C205.531 352.469 179.039 355.144 152.926 360.104C142.278 323.65 136.658 285.912 136.229 247.94H232.104V352.106ZM136.229 231.945C136.662 193.977 142.281 156.247 152.926 119.802C179.039 124.761 205.531 127.436 232.104 127.799V231.945H136.229ZM248.099 111.788V16.7563C277.84 21.8758 304.722 55.1425 322.411 104.431C297.888 108.965 273.033 111.425 248.099 111.788ZM290.324 21.8172C292.284 22.2741 294.237 22.7154 296.178 23.2191C297.779 23.6409 299.426 24.1134 301.047 24.5702C303.039 25.1365 305.046 25.7066 306.998 26.3275C308.599 26.843 310.239 27.3858 311.852 27.9285C313.797 28.5924 315.734 29.2641 317.659 29.9748C319.26 30.5683 320.857 31.1814 322.458 31.814C324.36 32.5677 326.258 33.3448 328.144 34.1492C329.714 34.8209 331.276 35.5121 332.83 36.215C334.696 37.0741 336.547 37.9488 338.383 38.8391C339.917 39.5889 341.444 40.3504 342.956 41.1314C344.779 42.0764 346.587 43.0526 348.387 44.0445C349.883 44.845 351.359 45.6924 352.831 46.5476C354.624 47.5941 356.393 48.6758 358.158 49.7458C359.583 50.6244 361.012 51.5069 362.414 52.4246C364.179 53.5766 365.925 54.7676 367.659 55.9743C369.018 56.9115 370.38 57.8409 371.724 58.8132C373.458 60.0784 375.16 61.3905 376.867 62.7026C378.151 63.6945 379.448 64.6629 380.713 65.6782C382.439 67.0684 384.118 68.5171 385.805 69.962C386.988 70.9773 388.207 71.9692 389.366 73.0118C391.116 74.6089 392.819 76.21 394.521 77.8071C395.564 78.8068 396.634 79.7674 397.657 80.7827C397.786 80.9038 397.907 81.0405 398.028 81.1693C378.835 89.8736 358.798 96.5746 338.23 101.163C328.843 71.2584 312.415 44.0484 290.324 21.8172V21.8172ZM435.926 303.922H387.367L457.177 234.113C451.546 254.68 444.115 279.84 435.926 303.922ZM376.058 292.613V244.059C400.136 235.862 425.296 228.443 445.868 222.804L376.058 292.613ZM360.063 308.608L320.076 348.596V266.38C333.095 260.104 346.443 254.528 360.063 249.682V308.608ZM371.372 319.917H430.295C425.449 333.534 419.872 346.881 413.597 359.904H331.385L371.372 319.917ZM297.048 281.137C299.227 279.071 301.578 277.197 304.081 275.537V364.59L280.577 388.095C259.197 358.448 270.787 307.398 297.048 281.137V281.137ZM291.882 399.404L315.39 375.899H404.424C402.765 378.399 400.89 380.749 398.824 382.928C372.587 409.189 321.529 420.78 291.882 399.404V399.404Z" fill="#007B97"/>
</svg>
