<svg xmlns="http://www.w3.org/2000/svg" width="35px" id="footeryoutube"
					class="si63dc1fccf7a484000d25a3ff38f9436850b841fa89cca7b3c6cdc42a1675370459177 svgIcon_1J7 filled_Qbi darkTheme_3jZ"
					viewBox="0 0 32 32" style="border-radius:4px">
					<path class="outer_bDW"
						d="M5,0 L27,0 C29.7614237,-5.07265313e-16 32,2.23857625 32,5 L32,27 C32,29.7614237 29.7614237,32 27,32 L5,32 C2.23857625,32 3.38176876e-16,29.7614237 0,27 L0,5 C-3.38176876e-16,2.23857625 2.23857625,5.07265313e-16 5,0 Z M24.8319297,11.4874563 C24.6803369,10.1603684 24.3639692,9.77357894 24.1398754,9.59352174 C23.7839619,9.31343284 23.1380446,9.21340113 22.2746246,9.15338207 C20.8905163,9.06001905 18.537532,9 16,9 C13.455877,9 11.1094837,9.05335028 9.72537529,9.15338207 C8.86195533,9.21340113 8.21603808,9.31343284 7.8601245,9.59352174 C7.63603076,9.77357894 7.32625412,10.1603684 7.1680703,11.4874563 C6.94397657,13.4013973 6.94397657,17.7627818 7.1680703,19.6767227 C7.32625412,21.0038107 7.63603076,21.3906002 7.8601245,21.5706573 C8.21603808,21.8507463 8.86195533,21.950778 9.72537529,22.0107971 C11.1094837,22.1041601 13.455877,22.164179 16,22.164179 C18.544123,22.164179 20.8905163,22.1041601 22.2746246,22.0107971 C23.1380446,21.950778 23.7839619,21.8507463 24.1398754,21.5706573 C24.3639692,21.3972689 24.6737458,21.0038107 24.8319297,19.6767227 C25.0560234,17.7627818 25.0560234,13.4013973 24.8319297,11.4874563 Z M13.8249725,18.4429978 L13.8249725,12.7145125 L19.2559502,15.5754208 L13.8249725,18.4429978 Z">
					</path>
					<path
						d="M5,1 C2.790861,1 1,2.790861 1,5 L1,27 C1,29.209139 2.790861,31 5,31 L27,31 C29.209139,31 31,29.209139 31,27 L31,5 C31,2.790861 29.209139,1 27,1 L5,1 Z M5,0 L27,0 C29.7614237,-5.07265313e-16 32,2.23857625 32,5 L32,27 C32,29.7614237 29.7614237,32 27,32 L5,32 C2.23857625,32 3.38176876e-16,29.7614237 0,27 L0,5 C-3.38176876e-16,2.23857625 2.23857625,5.07265313e-16 5,0 Z"
						class="border_2yy"></path>
					<path class="logo_2gS"
						d="M24.8319297,11.4874563 C24.6803369,10.1603684 24.3639692,9.77357894 24.1398754,9.59352174 C23.7839619,9.31343284 23.1380446,9.21340113 22.2746246,9.15338207 C20.8905163,9.06001905 18.537532,9 16,9 C13.455877,9 11.1094837,9.05335028 9.72537529,9.15338207 C8.86195533,9.21340113 8.21603808,9.31343284 7.8601245,9.59352174 C7.63603076,9.77357894 7.32625412,10.1603684 7.1680703,11.4874563 C6.94397657,13.4013973 6.94397657,17.7627818 7.1680703,19.6767227 C7.32625412,21.0038107 7.63603076,21.3906002 7.8601245,21.5706573 C8.21603808,21.8507463 8.86195533,21.950778 9.72537529,22.0107971 C11.1094837,22.1041601 13.455877,22.164179 16,22.164179 C18.544123,22.164179 20.8905163,22.1041601 22.2746246,22.0107971 C23.1380446,21.950778 23.7839619,21.8507463 24.1398754,21.5706573 C24.3639692,21.3972689 24.6737458,21.0038107 24.8319297,19.6767227 C25.0560234,17.7627818 25.0560234,13.4013973 24.8319297,11.4874563 Z M13.8249725,18.4429978 L13.8249725,12.7145125 L19.2559502,15.5754208 L13.8249725,18.4429978 Z"
						style="color:#1f3138;fill:#1f3138"></path>
				</svg>