<svg width="480" height="480" viewBox="0 0 480 480" fill="none" xmlns="http://www.w3.org/2000/svg">
<path d="M217.363 374.203C218.417 374.203 219.464 373.992 220.432 373.582C224.505 371.88 226.43 367.202 224.736 363.129C205.184 316.364 194.227 266.455 192.387 215.805C192.372 213.661 191.474 211.622 189.904 210.166C188.338 208.706 186.237 207.956 184.101 208.092C179.692 208.253 176.244 211.958 176.401 216.371C178.314 268.943 189.689 320.737 209.991 369.271C211.225 372.251 214.134 374.199 217.363 374.203V374.203Z" fill="#007B97"/>
<path d="M479.433 469.034L444.078 380.58C425.491 334.311 415.967 284.906 416.021 235.044V176.103C416.021 171.687 412.441 168.106 408.024 168.106H280.068C275.652 168.106 272.071 171.687 272.071 176.103V235.044C272.087 274.417 266.132 313.568 254.405 351.156L254.261 350.813C234.299 303.075 224.041 251.839 224.088 200.095V144.114C224.088 139.698 220.507 136.117 216.09 136.117H88.1343C83.7179 136.117 80.1371 139.698 80.1371 144.114V200.095C80.1879 251.839 69.9297 303.075 49.9639 350.813L0.781592 468.925C-0.249303 471.392 0.0240402 474.212 1.5079 476.438C2.99177 478.663 5.487 479.999 8.16186 479.999H472.002C474.658 480.003 477.137 478.687 478.625 476.488C480.117 474.294 480.417 471.502 479.433 469.034V469.034ZM288.066 184.101H400.027V200.095H288.066V184.101ZM288.066 235.044V216.09H400.027V235.044C399.972 286.944 409.887 338.368 429.228 386.527L441.013 416.021H281.439L263.789 373.637C279.9 329.207 288.116 282.305 288.066 235.044V235.044ZM96.1316 152.112H208.093V168.106H96.1316V152.112ZM64.7283 356.963C85.5102 307.277 96.1863 253.952 96.1316 200.095V184.101H208.093V200.095C208.038 253.956 218.714 307.285 239.5 356.971L264.074 416.021H40.1509L64.7283 356.963ZM33.4735 432.015H270.751L282.974 461.365L284.067 464.004H20.1577L33.4735 432.015ZM301.381 464.004L288.066 432.015H447.413L460.209 464.004H301.381Z" fill="#007B97"/>
<path d="M406.97 403.467C407.989 403.467 409 403.267 409.945 402.881C414.042 401.237 416.033 396.586 414.393 392.486C395.888 346.424 385.676 297.456 384.224 247.84C384.099 243.424 380.413 239.945 375.996 240.074C371.58 240.202 368.104 243.889 368.229 248.305C369.741 299.799 380.338 350.622 399.539 398.429C400.753 401.471 403.694 403.467 406.97 403.467V403.467Z" fill="#007B97"/>
<path d="M344.999 153.33C360.97 153.256 376.316 147.102 387.914 136.117C404.635 119.396 422.027 49.7485 423.956 41.8879C424.62 39.1701 423.82 36.3078 421.844 34.3319C419.868 32.356 417.002 31.5555 414.288 32.2194C406.427 34.1445 336.771 51.5487 320.055 68.2617C310.745 78.0708 304.853 90.629 303.263 104.058C300.917 117.686 305.056 131.63 314.459 141.772C322.686 149.55 333.683 153.709 344.999 153.33V153.33ZM319.113 105.975C320.246 96.088 324.545 86.8334 331.363 79.5859C340.161 70.7881 377.004 58.7376 405.049 51.1386C397.454 79.1876 385.376 116.046 376.605 124.828C364.922 136.039 348.018 139.909 332.621 134.895L351.157 116.358L369.807 119.084C370.194 119.146 370.584 119.174 370.975 119.174C375.157 119.154 378.616 115.921 378.921 111.751C379.222 107.584 376.262 103.882 372.126 103.265L365.258 102.258L382.275 85.2402C384.353 83.2331 385.188 80.2575 384.454 77.4616C383.724 74.6657 381.541 72.4829 378.745 71.7526C375.949 71.0185 372.974 71.8542 370.967 73.9316L353.934 90.9335L352.926 84.0648C352.594 81.1674 350.712 78.676 348.014 77.571C345.311 76.462 342.227 76.9149 339.954 78.7463C337.685 80.5816 336.592 83.5025 337.107 86.3765L339.841 105.026L321.328 123.54C319.047 117.983 318.286 111.922 319.113 105.975V105.975Z" fill="#007B97"/>
<path d="M145.068 121.341C161.039 121.267 176.385 115.113 187.983 104.128C204.704 87.4074 222.096 17.7595 224.025 9.89894C224.689 7.18113 223.888 4.31883 221.913 2.34295C219.937 0.367064 217.07 -0.433442 214.357 0.230393C206.496 2.15551 136.84 19.5597 120.123 36.2727C110.814 46.0818 104.922 58.64 103.332 72.0689C100.985 85.6971 105.125 99.6415 114.528 109.783C122.755 117.561 133.752 121.72 145.068 121.341ZM119.182 73.9863C120.315 64.099 124.614 54.8444 131.432 47.5969C140.23 38.7992 177.073 26.7486 205.118 19.1497C197.523 47.1986 185.445 84.057 176.674 92.8391C164.991 104.05 148.086 107.92 132.689 102.906L151.226 84.3694L169.876 87.095C170.262 87.1575 170.653 87.1848 171.043 87.1848C175.226 87.1653 178.685 83.9321 178.99 79.7616C179.291 75.5951 176.331 71.8932 172.195 71.2763L165.327 70.2688L182.344 53.2512C185.374 50.1117 185.331 45.1251 182.247 42.0402C179.162 38.9553 174.171 38.9124 171.036 41.9426L154.002 58.9446L152.995 52.0758C152.663 49.1784 150.781 46.6871 148.083 45.582C145.38 44.473 142.295 44.9259 140.023 46.7573C137.754 48.5927 136.661 51.5135 137.176 54.3875L139.91 73.0374L121.396 91.5505C119.116 85.9938 118.354 79.9334 119.182 73.9863Z" fill="#007B97"/>
</svg>
